<svg data-v-423bf9ae="" xmlns="http://www.w3.org/2000/svg" viewBox="0 0 265.08848669684147 60" class="font"><!----><!----><!----><g data-v-423bf9ae="" id="6e5ff05c-1505-4125-8b5c-4a473559513d" fill="black" transform="matrix(4.424778624136357,0,0,4.424778624136357,-0.000002396882649691179,1.2831863131775059)"><path d="M4.38 9.48Q4.38 10.65 2.57 10.65L2.57 10.65Q0 10.65 0 8.75L0 8.75L0 7.76Q0 5.95 2.92 5.95L2.92 5.95Q4.38 5.95 4.38 5.25L4.38 5.25L4.38 4.96Q4.38 3.94 2.92 3.94L2.92 3.94Q1.66 3.94 1.66 4.96L1.66 4.96L1.66 5.54L0.20 5.54L0.20 4.67Q0.20 2.77 2.92 2.77L2.92 2.77Q5.83 2.77 5.83 4.67L5.83 4.67L5.83 9.48Q5.83 10.50 6.42 10.50L6.42 10.50L4.96 10.50Q4.38 10.50 4.38 9.48L4.38 9.48ZM4.38 6.59Q4.38 7.12 2.92 7.12L2.92 7.12Q1.46 7.12 1.46 8.05L1.46 8.05L1.46 8.46Q1.46 9.48 2.92 9.48L2.92 9.48Q4.38 9.48 4.38 8.10L4.38 8.10L4.38 6.59ZM7 2.92L7 10.50L8.46 10.50L8.46 4.96Q8.46 3.94 10.21 3.94L10.21 3.94Q11.96 3.94 11.96 4.96L11.96 4.96L11.96 10.50L13.42 10.50L13.42 4.67Q13.42 2.77 10.94 2.77Q8.46 2.77 8.46 3.94L8.46 3.94L8.46 2.92L7 2.92ZM15.40 0.58L16.86 0.58L16.86 2.92L18.32 2.92L18.32 4.08L16.86 4.08L16.86 8.17Q16.86 9.33 18.32 9.33L18.32 9.33L18.32 10.50L16.86 10.50Q15.40 10.50 15.40 8.75L15.40 8.75L15.40 4.08L14.58 4.08L14.58 2.92L15.40 2.92L15.40 0.58ZM20.94 2.92L19.48 2.92L19.48 10.50L20.94 10.50L20.94 2.92ZM21.06 0.66Q21.06-0.15 20.21-0.15Q19.37-0.15 19.37 0.66Q19.37 1.46 20.21 1.46Q21.06 1.46 21.06 0.66ZM22.93 10.50L24.38 10.50L24.38 4.08L25.84 4.08L25.84 2.92L24.38 2.92L24.38 1.75Q24.38 0.88 25.84 0.88L25.84 0.88L25.84-0.29L24.46-0.29Q22.93-0.29 22.93 1.46L22.93 1.46L22.93 2.92L22.11 2.92L22.11 4.08L22.93 4.08L22.93 10.50ZM27.01 2.92L27.01 10.50L28.47 10.50L28.47 4.96Q28.47 3.94 29.75 3.94Q31.03 3.94 31.03 4.96L31.03 4.96L31.03 5.54L32.49 5.54L32.49 4.67Q32.49 2.77 30.48 2.77Q28.47 2.77 28.47 3.94L28.47 3.94L28.47 2.92L27.01 2.92ZM38.03 9.48Q38.03 10.65 36.23 10.65L36.23 10.65Q33.66 10.65 33.66 8.75L33.66 8.75L33.66 7.76Q33.66 5.95 36.57 5.95L36.57 5.95Q38.03 5.95 38.03 5.25L38.03 5.25L38.03 4.96Q38.03 3.94 36.57 3.94L36.57 3.94Q35.32 3.94 35.32 4.96L35.32 4.96L35.32 5.54L33.86 5.54L33.86 4.67Q33.86 2.77 36.57 2.77L36.57 2.77Q39.49 2.77 39.49 4.67L39.49 4.67L39.49 9.48Q39.49 10.50 40.07 10.50L40.07 10.50L38.62 10.50Q38.03 10.50 38.03 9.48L38.03 9.48ZM38.03 6.59Q38.03 7.12 36.57 7.12L36.57 7.12Q35.12 7.12 35.12 8.05L35.12 8.05L35.12 8.46Q35.12 9.48 36.57 9.48L36.57 9.48Q38.03 9.48 38.03 8.10L38.03 8.10L38.03 6.59ZM45.62 2.92L47.07 2.92L47.07 11.67Q47.07 13.27 43.87 13.27L43.87 13.27Q40.66 13.27 40.66 11.67L40.66 11.67L40.66 10.94L42.12 10.94L42.12 11.38Q42.12 12.10 43.87 12.10L43.87 12.10Q45.62 12.10 45.62 11.38L45.62 11.38L45.62 9.48Q45.62 10.65 43.14 10.65Q40.66 10.65 40.66 8.75L40.66 8.75L40.66 4.67Q40.66 2.77 43.14 2.77Q45.62 2.77 45.62 3.94L45.62 3.94L45.62 2.92ZM45.62 8.46L45.62 8.46L45.62 4.96Q45.62 3.94 43.87 3.94L43.87 3.94Q42.12 3.94 42.12 4.96L42.12 4.96L42.12 8.46Q42.12 9.48 43.87 9.48L43.87 9.48Q45.62 9.48 45.62 8.46ZM49.70 2.92L48.24 2.92L48.24 10.50L49.70 10.50L49.70 2.92ZM49.82 0.66Q49.82-0.15 48.97-0.15Q48.13-0.15 48.13 0.66Q48.13 1.46 48.97 1.46Q49.82 1.46 49.82 0.66ZM50.87 10.50L52.33 10.50L52.33-0.29L50.87-0.29L50.87 10.50ZM53.49 4.67L53.49 4.67L53.49 8.75Q53.49 10.65 56.70 10.65L56.70 10.65Q59.91 10.65 59.91 8.75L59.91 8.75L59.91 7.88L58.45 7.88L58.45 8.46Q58.45 9.48 56.70 9.48L56.70 9.48Q54.95 9.48 54.95 8.46L54.95 8.46L54.95 7.29L59.91 7.29L59.91 4.67Q59.91 2.77 56.70 2.77L56.70 2.77Q53.49 2.77 53.49 4.67ZM58.45 6.13L54.95 6.13L54.95 4.96Q54.95 3.94 56.70 3.94L56.70 3.94Q58.45 3.94 58.45 4.96L58.45 4.96L58.45 6.13Z"></path></g><!----><!----></svg>