<?xml version="1.0" standalone="no"?>
<!DOCTYPE svg PUBLIC "-//W3C//DTD SVG 20010904//EN"
 "http://www.w3.org/TR/2001/REC-SVG-20010904/DTD/svg10.dtd">
<svg version="1.0" xmlns="http://www.w3.org/2000/svg"
 width="1088" height="687.962" viewBox="0 0 1088 687.962"
 preserveAspectRatio="xMidYMid meet">

<g transform="translate(0.000000,1227.000000) scale(0.100000,-0.100000)"
fill="#000000" stroke="none">
<path d="M0 6205 l0 -6065 37 -34 c30 -27 40 -32 55 -23 14 9 22 6 43 -13 14
-13 25 -34 25 -47 l0 -23 2390 0 c1494 0 2390 4 2390 9 0 6 -21 11 -47 13 -40
3 -48 6 -48 23 0 19 8 20 168 23 100 1 167 6 167 12 0 6 -18 10 -39 10 -22 0
-42 4 -45 9 -8 12 115 22 394 30 129 4 221 8 203 9 -43 3 -63 12 -63 28 0 12
46 14 270 14 229 0 270 2 270 14 0 10 -14 16 -42 18 -24 2 -42 8 -41 13 2 6
114 12 300 15 217 4 297 8 300 17 3 8 -14 13 -54 15 -32 2 -57 7 -56 13 2 6
127 11 343 13 332 2 340 3 340 22 0 18 -7 20 -60 20 -46 0 -60 3 -60 15 0 10
-16 15 -62 18 -35 2 60 4 210 5 180 1 271 -1 267 -8 -3 -5 -23 -10 -45 -10
-24 0 -40 -5 -44 -15 -3 -10 -19 -15 -46 -15 -25 0 -40 -5 -40 -12 0 -10 116
-13 550 -12 338 0 550 4 550 10 0 5 -50 9 -115 9 -78 0 -118 4 -123 12 -5 7
-48 13 -118 16 -113 4 -139 10 -128 28 12 19 1454 7 1454 -13 0 -4 -6 -8 -14
-8 -7 0 -19 -7 -26 -15 -7 -8 -23 -15 -36 -15 -13 0 -24 -4 -24 -8 0 -11 343
-22 664 -22 287 0 616 -11 616 -20 0 -3 -12 -11 -27 -16 -20 -8 82 -13 372
-19 220 -4 510 -10 645 -14 l245 -6 -245 -8 c-135 -4 -344 -11 -465 -15 l-220
-7 140 -6 c77 -4 244 -7 370 -8 296 -1 545 -12 545 -23 0 -4 -7 -8 -15 -8 -8
0 -15 -4 -15 -8 0 -11 259 -22 544 -23 116 -1 258 -4 316 -8 l105 -6 -175 -8
c-96 -4 -287 -10 -425 -14 l-250 -7 430 -12 c237 -7 500 -13 585 -14 85 -1
147 -4 138 -7 -10 -2 -18 -13 -18 -24 0 -19 80 -19 5760 -19 l5760 0 0 601 c0
488 -3 603 -13 614 -8 7 -34 17 -58 22 l-44 10 58 8 c51 7 57 10 57 31 0 38
-29 64 -71 64 -24 0 -39 5 -43 15 -3 8 -16 15 -30 15 -13 0 -26 7 -30 15 -3
10 -19 15 -46 15 -29 0 -40 4 -40 15 0 12 18 15 100 15 82 0 100 3 100 15 0 9
-9 15 -25 15 -14 0 -28 7 -31 15 -4 8 -17 15 -30 15 -14 0 -27 7 -30 15 -4 10
-20 15 -44 15 -24 0 -40 5 -44 15 -3 8 -16 15 -30 15 -13 0 -26 7 -30 15 -3 8
-16 15 -30 15 -13 0 -26 7 -30 15 -3 10 -19 15 -45 15 -25 0 -41 5 -45 15 -3
8 -17 15 -31 15 -16 0 -25 6 -25 15 0 12 15 15 73 16 39 1 86 5 102 9 l30 8
-28 1 c-15 0 -30 8 -33 16 -4 8 -17 15 -30 15 -14 0 -27 7 -30 15 -4 8 -17 15
-30 15 -14 0 -27 7 -30 15 -4 8 -17 15 -30 15 -14 0 -27 6 -30 14 -3 7 -24 17
-46 20 -25 4 -51 17 -64 31 -13 14 -32 25 -44 25 -11 0 -23 7 -26 15 -4 8 -17
15 -30 15 -14 0 -27 7 -30 15 -4 8 -17 15 -30 15 -14 0 -27 7 -30 15 -4 8 -16
15 -28 15 -21 0 -66 39 -66 58 0 10 69 22 129 22 33 0 29 4 -55 45 -50 24 -96
51 -104 59 -7 9 -20 16 -30 16 -10 0 -23 7 -30 15 -7 8 -21 15 -32 15 -10 0
-21 7 -24 15 -4 8 -16 15 -29 15 -13 0 -25 7 -29 15 -3 8 -17 15 -31 15 -14 0
-28 7 -31 15 -4 8 -16 15 -29 15 -13 0 -25 7 -29 15 -3 8 -17 15 -31 15 -14 0
-28 7 -31 15 -4 8 -16 15 -29 15 -13 0 -25 7 -29 15 -3 8 -16 15 -30 15 -13 0
-26 7 -30 15 -3 8 -16 15 -30 15 -13 0 -26 7 -30 15 -3 8 -16 15 -30 15 -13 0
-26 7 -30 15 -3 8 -16 15 -30 15 -13 0 -26 7 -30 15 -3 8 -16 15 -30 15 -13 0
-26 7 -30 15 -3 9 -18 15 -36 15 -16 0 -30 4 -30 9 0 5 -13 12 -30 16 -16 4
-30 10 -30 15 0 5 -13 11 -30 15 -16 4 -30 10 -30 15 0 5 -13 11 -30 15 -16 4
-30 10 -30 15 0 5 -13 11 -30 15 -16 4 -30 10 -30 15 0 5 -13 11 -30 15 -16 4
-30 11 -30 16 0 5 -7 9 -15 9 -8 0 -15 7 -15 15 0 10 -10 15 -30 15 -20 0 -30
5 -30 15 0 8 -7 15 -15 15 -18 0 -20 16 -3 26 7 4 28 11 48 15 l35 7 -32 1
c-22 1 -33 6 -33 16 0 11 -11 15 -39 15 -25 0 -41 5 -45 15 -3 8 -16 15 -30
15 -13 0 -26 7 -30 15 -3 8 -16 15 -30 15 -13 0 -26 7 -30 15 -3 8 -16 15 -30
15 -13 0 -26 7 -30 15 -3 8 -14 15 -25 15 -11 0 -32 11 -47 25 -15 14 -30 25
-34 25 -5 0 -10 -75 -12 -167 -3 -131 -7 -175 -20 -198 -21 -39 -56 -71 -91
-84 -40 -15 -19374 -15 -19414 0 -38 14 -83 57 -99 96 -12 27 -14 574 -14
3475 0 3320 1 3444 19 3483 10 22 28 48 39 58 54 49 -305 46 6075 47 l5977 0
0 25 c0 14 7 28 15 31 9 4 15 19 15 35 0 16 4 29 9 29 4 0 11 28 14 63 3 35
13 83 21 108 9 24 16 61 16 82 0 24 5 40 15 43 9 4 15 19 15 35 0 16 4 29 9
29 10 0 20 43 28 118 3 28 9 52 14 52 5 0 9 14 9 30 0 18 6 33 15 36 8 4 15
17 15 30 0 14 7 27 15 30 10 4 15 20 15 50 0 24 4 44 9 44 5 0 11 15 14 33 15
83 21 103 33 110 8 4 14 19 14 32 0 13 5 27 10 30 6 3 10 19 10 36 0 19 5 29
15 29 10 0 15 10 15 29 0 16 6 31 15 35 8 3 15 16 15 30 0 14 4 28 10 31 5 3
10 17 10 31 0 14 7 27 15 30 9 4 15 19 15 38 0 17 9 42 20 56 11 14 20 35 20
48 0 12 7 25 15 28 8 4 15 18 15 34 0 16 7 30 15 34 8 3 15 16 15 30 0 13 7
26 15 30 8 3 15 16 15 28 0 13 9 34 20 48 11 14 20 37 20 52 0 15 11 39 25 54
14 15 25 38 25 51 0 13 7 26 15 29 8 4 15 17 15 30 0 14 7 27 15 30 8 4 15 12
15 19 0 7 7 15 15 19 8 3 15 16 15 29 0 14 7 30 15 37 8 7 15 20 15 30 0 9 11
29 24 43 13 14 27 42 30 62 4 20 16 44 27 53 10 9 19 24 19 34 0 9 11 29 25
44 14 15 25 38 25 51 0 13 7 26 15 29 8 4 15 12 15 19 0 7 7 15 15 19 8 3 15
16 15 28 1 13 14 34 30 48 17 13 30 28 30 32 0 4 -3535 8 -7855 8 l-7855 0 0
-6065z m22615 -5105 c15 -14 52 -61 83 -105 l57 -80 3 -268 c3 -262 2 -268
-20 -308 -45 -81 -36 -79 -467 -79 -402 0 -402 0 -453 48 -43 39 -50 98 -46
364 l3 237 61 88 c97 142 72 134 440 131 l312 -3 27 -25z m393 -47 c19 -26 20
-26 26 -6 8 26 34 37 52 22 19 -16 18 -103 0 -119 -12 -9 -17 -8 -27 8 -7 11
-19 18 -26 15 -7 -3 -20 0 -28 7 -12 10 -15 9 -15 -7 0 -25 -8 -33 -26 -26
-18 7 -20 119 -1 126 21 9 25 8 45 -20z m246 5 c42 -69 41 -144 -2 -105 -23
21 -31 21 -51 3 -31 -28 -43 -5 -25 50 27 79 50 95 78 52z m206 2 c54 -54 -12
-142 -84 -114 -12 5 -16 20 -16 63 0 32 3 61 7 64 14 15 74 6 93 -13z m185 0
c0 -9 -12 -17 -30 -19 -29 -4 -30 -4 -5 -10 14 -4 25 -13 25 -21 0 -8 -11 -17
-25 -21 l-25 -7 27 -1 c31 -1 47 -19 27 -32 -20 -13 -73 -11 -87 3 -16 16 -15
101 0 116 18 18 93 11 93 -8z m202 0 c7 -26 19 -26 26 1 8 28 39 21 48 -11 4
-14 7 -18 8 -9 2 25 29 45 43 31 16 -16 -8 -118 -29 -126 -19 -8 -43 10 -43
33 -1 10 -6 6 -16 -11 -16 -30 -22 -32 -41 -20 -16 10 -46 109 -38 122 11 17
37 11 42 -10z m247 4 c3 -9 6 -35 6 -59 0 -50 -21 -75 -45 -55 -18 15 -20 101
-3 118 17 17 35 15 42 -4z m174 -6 c2 -12 -3 -18 -15 -18 -15 0 -18 -6 -15
-38 3 -26 -1 -42 -12 -51 -23 -20 -36 -4 -36 45 0 32 -4 44 -14 44 -8 0 -18 5
-21 10 -13 21 8 31 58 28 40 -2 53 -7 55 -20z m110 -6 c4 -29 30 -29 34 1 2
14 10 22 23 22 17 0 20 -8 23 -56 2 -40 -1 -59 -12 -68 -19 -16 -36 -6 -36 20
0 27 -28 24 -32 -3 -2 -15 -10 -23 -23 -23 -17 0 -20 8 -23 54 -2 29 -1 60 2
68 9 22 41 11 44 -15z m-500 -473 c2 -154 0 -188 -12 -198 -16 -13 -56 -6 -56
10 0 5 -13 3 -30 -6 -37 -19 -73 -19 -110 0 -47 24 -63 66 -58 153 3 69 6 76
36 103 35 31 94 39 133 19 17 -10 19 -7 19 34 0 65 7 78 44 74 l31 -3 3 -186z
m-678 162 c39 -20 75 -73 66 -96 -9 -24 -54 -18 -71 9 -23 34 -70 49 -103 33
-41 -19 -53 -53 -50 -136 3 -66 6 -76 31 -97 39 -34 71 -30 114 11 39 37 59
41 76 14 8 -13 6 -24 -7 -43 -57 -87 -212 -89 -265 -2 -40 65 -39 197 2 258
43 64 137 87 207 49z m293 -77 c15 -3 38 -20 52 -36 21 -25 25 -39 25 -100 0
-82 -18 -120 -66 -143 -64 -30 -152 -8 -179 45 -36 69 -27 166 19 209 25 24
79 41 106 35 8 -2 27 -6 43 -10z m914 -10 c50 -32 77 -109 48 -137 -13 -13
-35 -17 -96 -17 -64 0 -79 -3 -79 -15 0 -43 82 -73 110 -40 16 20 59 19 67 -1
3 -10 -4 -26 -19 -41 -48 -48 -165 -40 -207 13 -23 30 -36 100 -27 149 18 93
124 139 203 89z m-418 2 c6 -7 22 -51 36 -96 14 -46 27 -85 29 -87 2 -2 16 36
31 84 30 98 39 113 66 113 41 0 38 -29 -17 -188 -29 -85 -61 -163 -70 -173
-26 -29 -86 -44 -113 -29 -30 15 -23 44 12 48 53 6 53 31 2 178 -39 109 -45
137 -35 149 16 19 44 19 59 1z m-14669 -196 c0 -5 -11 -10 -24 -10 -14 0 -28
-4 -31 -10 -3 -5 -41 -10 -85 -10 -61 0 -79 3 -84 16 -5 13 -24 14 -141 8 -99
-5 -135 -4 -135 5 0 8 69 11 250 11 160 0 250 -4 250 -10z m1188 -87 c-16 -2
-40 -2 -55 0 -16 2 -3 4 27 4 30 0 43 -2 28 -4z m240 0 c-10 -2 -26 -2 -35 0
-10 3 -2 5 17 5 19 0 27 -2 18 -5z"/>
<path d="M21840 758 c0 -30 5 -59 12 -66 13 -13 295 -17 314 -4 6 4 18 31 27
60 l15 52 -162 0 c-88 0 -171 3 -183 6 -22 6 -23 3 -23 -48z"/>
<path d="M22498 803 l-176 -3 16 -53 c9 -28 21 -55 27 -59 16 -12 284 -9 306
2 15 9 19 22 19 65 0 30 -3 54 -7 53 -5 -1 -87 -4 -185 -5z"/>
<path d="M23400 1010 c0 -21 4 -30 13 -27 6 2 12 14 12 27 0 13 -6 25 -12 28
-9 2 -13 -7 -13 -28z"/>
<path d="M23700 591 c-18 -35 -12 -119 10 -141 46 -46 90 -12 90 69 0 71 -12
91 -55 91 -24 0 -38 -6 -45 -19z"/>
<path d="M23405 595 c-47 -46 -27 -157 28 -163 46 -5 57 12 57 89 0 59 -3 70
-22 83 -30 21 -35 20 -63 -9z"/>
<path d="M24314 610 c-12 -4 -24 -18 -27 -29 -5 -19 -1 -21 49 -21 58 0 65 9
34 40 -22 22 -25 23 -56 10z"/>
<path d="M10010 9025 c-11 -13 -11 -19 3 -32 21 -21 49 -9 45 19 -4 28 -30 35
-48 13z"/>
<path d="M9255 8913 c-95 -237 -97 -243 -77 -243 14 0 32 33 77 148 32 81 65
162 72 180 12 29 12 32 -6 32 -15 0 -29 -25 -66 -117z"/>
<path d="M9515 8913 c-95 -237 -97 -243 -77 -243 14 0 32 33 77 148 32 81 65
162 72 180 12 29 12 32 -6 32 -15 0 -29 -25 -66 -117z"/>
<path d="M12365 8913 c-95 -237 -97 -243 -77 -243 14 0 32 33 77 148 32 81 65
162 72 180 12 29 12 32 -6 32 -15 0 -29 -25 -66 -117z"/>
<path d="M7597 9014 c-4 -4 -7 -76 -7 -161 l0 -153 25 0 c25 0 25 1 25 78 0
85 14 112 58 112 31 0 42 -29 42 -114 0 -75 0 -76 26 -76 l26 0 -4 94 c-3 75
-8 99 -22 115 -24 26 -87 29 -107 4 -12 -14 -15 -9 -19 43 -4 42 -9 60 -20 62
-9 1 -19 0 -23 -4z"/>
<path d="M10450 8855 c0 -125 3 -155 14 -155 10 0 15 21 18 79 3 44 10 87 18
95 7 9 28 16 46 16 39 0 43 -8 46 -115 3 -57 6 -70 21 -73 15 -3 17 6 17 92 0
73 -4 98 -16 110 -23 24 -62 30 -92 15 -15 -7 -30 -15 -34 -17 -5 -2 -8 21 -8
52 0 43 -3 56 -15 56 -13 0 -15 -24 -15 -155z"/>
<path d="M10970 8855 c0 -133 2 -155 15 -155 9 0 18 7 21 15 5 13 8 13 27 0
26 -18 48 -19 80 -4 32 14 47 49 47 104 0 55 -15 90 -47 104 -33 15 -54 14
-81 -5 -22 -15 -22 -15 -22 40 0 49 -2 56 -20 56 -19 0 -20 -7 -20 -155z m138
17 c15 -19 16 -86 2 -113 -13 -23 -71 -26 -89 -5 -7 8 -11 37 -9 67 3 45 7 55
27 65 27 14 50 9 69 -14z"/>
<path d="M5050 8960 c0 -27 -3 -30 -30 -30 -23 0 -30 -4 -30 -20 0 -16 7 -20
30 -20 l30 0 0 -79 c0 -71 2 -82 22 -95 12 -9 42 -16 65 -16 36 0 43 3 43 20
0 16 -7 20 -33 20 -47 0 -57 15 -57 87 l0 63 45 0 c38 0 45 3 45 20 0 17 -7
20 -45 20 -43 0 -45 1 -45 30 0 23 -4 30 -20 30 -16 0 -20 -7 -20 -30z"/>
<path d="M7910 8960 c0 -27 -3 -30 -30 -30 -23 0 -30 -4 -30 -20 0 -16 7 -20
30 -20 l30 0 0 -79 c0 -71 2 -82 22 -95 12 -9 42 -16 65 -16 36 0 43 3 43 20
0 16 -7 20 -33 20 -47 0 -57 15 -57 87 l0 63 45 0 c38 0 45 3 45 20 0 17 -7
20 -45 20 -43 0 -45 1 -45 30 0 23 -4 30 -20 30 -16 0 -20 -7 -20 -30z"/>
<path d="M8170 8960 c0 -27 -3 -30 -30 -30 -23 0 -30 -4 -30 -20 0 -16 7 -20
30 -20 l30 0 0 -79 c0 -71 2 -82 22 -95 12 -9 42 -16 65 -16 36 0 43 3 43 20
0 16 -7 20 -33 20 -47 0 -57 15 -57 87 l0 63 45 0 c38 0 45 3 45 20 0 17 -7
20 -45 20 -43 0 -45 1 -45 30 0 23 -4 30 -20 30 -16 0 -20 -7 -20 -30z"/>
<path d="M10240 8955 c0 -32 -2 -35 -30 -35 -20 0 -30 -5 -30 -15 0 -10 10
-15 30 -15 l30 0 0 -74 c0 -54 4 -79 15 -90 18 -18 78 -31 101 -22 24 9 12 28
-20 32 -54 6 -56 9 -56 84 l0 70 45 0 c33 0 45 4 45 15 0 11 -12 15 -45 15
-45 0 -45 0 -45 35 0 28 -4 35 -20 35 -16 0 -20 -7 -20 -35z"/>
<path d="M8960 8926 c-6 -8 -10 -25 -8 -38 2 -19 9 -23 38 -23 29 0 36 4 38
23 4 28 -14 52 -38 52 -10 0 -23 -7 -30 -14z"/>
<path d="M3216 8907 c-45 -45 -41 -158 7 -192 22 -15 82 -20 112 -9 18 7 47
58 38 68 -13 12 -39 5 -51 -14 -15 -24 -54 -26 -76 -4 -23 22 -21 96 2 117 25
23 59 21 74 -3 11 -17 58 -29 58 -15 0 16 -31 63 -45 69 -38 14 -96 6 -119
-17z"/>
<path d="M3464 8907 c-16 -14 -24 -29 -20 -35 10 -16 31 -15 46 3 15 18 51 20
68 3 23 -23 12 -36 -39 -43 -58 -8 -89 -33 -89 -70 0 -37 33 -65 78 -65 21 0
43 5 50 12 9 9 12 9 12 0 0 -7 12 -12 26 -12 l26 0 -4 96 c-3 86 -5 98 -27
115 -33 27 -93 25 -127 -4z m106 -126 c0 -26 -24 -43 -57 -39 -18 2 -29 10
-31 22 -5 24 14 36 56 36 25 0 32 -4 32 -19z"/>
<path d="M3694 8917 c-2 -7 -3 -76 -2 -152 3 -132 4 -140 23 -140 16 0 21 8
25 47 4 39 8 46 20 38 8 -5 32 -10 52 -10 55 0 78 34 78 117 0 55 -4 67 -25
88 -29 29 -79 33 -107 8 -17 -15 -18 -15 -18 0 0 20 -38 23 -46 4z m135 -41
c7 -8 15 -30 18 -50 11 -67 -49 -113 -91 -70 -21 21 -21 92 1 116 19 21 56 24
72 4z"/>
<path d="M3981 8816 c42 -118 44 -144 9 -153 -29 -8 -26 -43 4 -43 44 0 65 31
111 160 25 69 45 131 45 138 0 8 -9 12 -22 10 -19 -2 -27 -18 -49 -88 -16 -50
-29 -79 -33 -70 -3 8 -16 47 -29 85 -21 61 -27 70 -50 73 l-27 3 41 -115z"/>
<path d="M4517 8919 c-10 -6 -22 -22 -28 -36 -14 -38 11 -69 69 -86 51 -15 66
-39 34 -56 -13 -7 -26 -6 -46 5 -36 18 -66 18 -66 0 0 -45 122 -64 160 -26 23
23 26 72 6 89 -7 6 -37 18 -65 27 -39 11 -51 19 -49 32 4 21 44 28 73 12 12
-7 31 -10 41 -8 17 3 16 6 -8 31 -29 29 -86 37 -121 16z"/>
<path d="M4773 8915 c-49 -34 -53 -146 -7 -192 35 -35 105 -33 142 5 l27 27
-24 3 c-13 2 -28 -1 -34 -7 -19 -19 -75 -13 -87 8 -19 37 -12 41 66 41 l77 0
-6 42 c-7 55 -43 88 -95 88 -21 0 -47 -7 -59 -15z m95 -37 c26 -26 13 -38 -38
-38 -54 0 -55 1 -40 31 12 22 59 26 78 7z"/>
<path d="M5252 8836 c3 -75 8 -99 22 -115 21 -23 74 -28 107 -11 13 7 19 7 19
0 0 -5 11 -10 25 -10 l26 0 -3 113 c-3 108 -4 112 -25 115 -22 3 -23 1 -23
-76 0 -84 -14 -112 -56 -112 -36 0 -44 20 -44 107 0 83 0 83 -26 83 l-26 0 4
-94z"/>
<path d="M5514 8917 c-2 -7 -3 -76 -2 -152 3 -132 4 -140 23 -140 16 0 21 8
25 47 4 39 8 46 20 38 8 -5 32 -10 52 -10 55 0 78 34 78 117 0 55 -4 67 -25
88 -29 29 -79 33 -107 8 -17 -15 -18 -15 -18 0 0 20 -38 23 -46 4z m135 -41
c7 -8 15 -30 18 -50 11 -67 -49 -113 -91 -70 -21 21 -21 92 1 116 19 21 56 24
72 4z"/>
<path d="M6579 8901 c-24 -25 -29 -37 -29 -81 0 -86 28 -119 100 -119 72 0
100 33 100 119 0 44 -5 56 -29 81 -23 23 -38 29 -71 29 -33 0 -48 -6 -71 -29z
m111 -27 c8 -8 13 -35 13 -59 0 -52 -16 -75 -53 -75 -37 0 -53 23 -53 75 0 52
16 75 53 75 15 0 33 -7 40 -16z"/>
<path d="M6810 8910 c0 -15 7 -20 25 -20 24 0 25 -2 25 -75 0 -68 -2 -75 -20
-75 -13 0 -20 -7 -20 -20 0 -18 7 -20 75 -20 68 0 75 2 75 20 0 16 -7 20 -36
20 l-37 0 7 53 c9 64 31 89 80 89 31 0 36 3 36 24 0 21 -4 24 -39 24 -31 0
-44 -6 -60 -26 l-21 -27 0 27 c0 24 -3 26 -45 26 -38 0 -45 -3 -45 -20z"/>
<path d="M7089 8904 c-20 -22 -24 -36 -24 -91 0 -59 3 -67 28 -89 32 -28 73
-31 105 -8 21 14 22 14 22 -9 0 -42 -43 -63 -85 -41 -32 16 -65 18 -65 4 0 -5
9 -19 20 -30 30 -30 119 -28 148 3 20 21 22 34 22 155 0 125 -1 132 -20 132
-12 0 -20 -7 -20 -17 0 -15 -1 -15 -18 0 -29 26 -84 22 -113 -9z m115 -36 c34
-48 9 -128 -39 -128 -31 0 -55 35 -55 79 0 64 62 96 94 49z"/>
<path d="M8374 8917 c-2 -7 -3 -76 -2 -152 3 -132 4 -140 23 -140 16 0 21 8
25 47 4 39 8 46 20 38 8 -5 32 -10 52 -10 55 0 78 34 78 117 0 55 -4 67 -25
88 -29 29 -79 33 -107 8 -17 -15 -18 -15 -18 0 0 20 -38 23 -46 4z m135 -41
c7 -8 15 -30 18 -50 11 -67 -49 -113 -91 -70 -21 21 -21 92 1 116 19 21 56 24
72 4z"/>
<path d="M8677 8919 c-10 -6 -22 -22 -28 -36 -14 -38 11 -69 69 -86 51 -15 66
-39 34 -56 -13 -7 -26 -6 -46 5 -36 18 -66 18 -66 0 0 -45 122 -64 160 -26 23
23 26 72 6 89 -7 6 -37 18 -65 27 -39 11 -51 19 -49 32 4 21 44 28 73 12 12
-7 31 -10 41 -8 17 3 16 6 -8 31 -29 29 -86 37 -121 16z"/>
<path d="M9695 8905 c-21 -21 -25 -33 -25 -87 1 -71 12 -93 58 -109 24 -8 37
-7 61 6 31 15 31 15 31 -9 0 -50 -53 -72 -98 -40 -12 8 -29 14 -37 12 -27 -5
11 -46 50 -54 44 -8 80 1 105 26 18 18 20 34 20 145 0 118 -1 125 -20 125 -11
0 -20 -5 -20 -11 0 -5 -10 -3 -22 5 -33 23 -75 20 -103 -9z m113 -33 c17 -22
15 -97 -4 -116 -20 -21 -58 -20 -79 0 -11 12 -15 31 -13 67 2 43 7 54 27 63
27 14 50 9 69 -14z"/>
<path d="M11534 8918 c-12 -5 -27 -21 -33 -34 -14 -32 -14 -106 0 -137 22 -48
97 -62 143 -26 31 24 34 49 6 49 -11 0 -20 -5 -20 -10 0 -6 -11 -15 -25 -22
-19 -9 -29 -8 -50 6 -22 14 -25 24 -25 71 0 47 3 57 25 71 21 14 31 15 50 6
14 -7 25 -16 25 -22 0 -5 9 -10 20 -10 28 0 25 25 -6 49 -28 22 -75 26 -110 9z"/>
<path d="M11792 8920 c-53 -22 -67 -149 -22 -195 31 -30 115 -28 141 3 44 55
32 159 -21 187 -32 17 -64 18 -98 5z m71 -31 c31 -17 37 -28 37 -75 0 -53 -19
-77 -60 -77 -41 0 -60 24 -60 77 0 46 6 58 35 74 25 14 22 14 48 1z"/>
<path d="M12046 8914 c-9 -8 -16 -11 -16 -5 0 6 -9 11 -20 11 -19 0 -20 -7
-20 -110 0 -91 3 -110 15 -110 12 0 15 14 15 64 0 98 8 126 36 126 24 0 24 -2
24 -95 0 -88 2 -95 20 -95 18 0 20 8 22 93 3 86 4 92 25 95 21 3 22 0 25 -90
3 -79 6 -93 21 -96 15 -3 17 6 17 85 0 48 -3 98 -6 111 -8 29 -49 40 -73 18
-16 -15 -19 -15 -31 -1 -16 19 -34 19 -54 -1z"/>
<path d="M12832 8920 c-53 -22 -67 -149 -22 -195 31 -30 115 -28 141 3 44 55
32 159 -21 187 -32 17 -64 18 -98 5z m71 -31 c31 -17 37 -28 37 -75 0 -53 -19
-77 -60 -77 -41 0 -60 24 -60 77 0 46 6 58 35 74 25 14 22 14 48 1z"/>
<path d="M13434 8922 c-5 -4 -18 -18 -27 -32 l-17 -24 0 27 c0 25 -3 27 -40
27 -22 0 -40 -4 -40 -10 0 -5 9 -10 20 -10 18 0 20 -7 20 -85 0 -78 -2 -85
-20 -85 -11 0 -20 -7 -20 -15 0 -12 15 -15 75 -15 59 0 75 3 75 14 0 9 -12 16
-32 18 -29 3 -33 7 -36 37 -7 74 25 121 83 121 28 0 35 4 35 20 0 16 -7 20
-32 20 -18 0 -38 -4 -44 -8z"/>
<path d="M13874 8918 c-12 -5 -27 -21 -33 -34 -14 -32 -14 -106 0 -137 22 -48
97 -62 143 -26 31 24 34 49 6 49 -11 0 -20 -5 -20 -10 0 -6 -11 -15 -25 -22
-19 -9 -29 -8 -50 6 -22 14 -25 24 -25 71 0 47 3 57 25 71 21 14 31 15 50 6
14 -7 25 -16 25 -22 0 -5 9 -10 20 -10 28 0 25 25 -6 49 -28 22 -75 26 -110 9z"/>
<path d="M14132 8920 c-53 -22 -67 -149 -22 -195 31 -30 115 -28 141 3 44 55
32 159 -21 187 -32 17 -64 18 -98 5z m71 -31 c31 -17 37 -28 37 -75 0 -53 -19
-77 -60 -77 -41 0 -60 24 -60 77 0 46 6 58 35 74 25 14 22 14 48 1z"/>
<path d="M14386 8914 c-9 -8 -16 -11 -16 -5 0 6 -9 11 -20 11 -19 0 -20 -7
-20 -110 0 -91 3 -110 15 -110 12 0 15 14 15 64 0 98 8 126 36 126 24 0 24 -2
24 -95 0 -88 2 -95 20 -95 18 0 20 8 22 93 3 86 4 92 25 95 21 3 22 0 25 -90
3 -79 6 -93 21 -96 15 -3 17 6 17 85 0 48 -3 98 -6 111 -8 29 -49 40 -73 18
-16 -15 -19 -15 -31 -1 -16 19 -34 19 -54 -1z"/>
<path d="M14672 8914 c-12 -8 -22 -10 -22 -5 0 6 -9 11 -20 11 -19 0 -20 -7
-20 -145 0 -138 1 -145 20 -145 17 0 20 7 20 50 l0 50 25 -16 c37 -24 91 -11
110 26 18 34 20 109 4 143 -20 44 -77 59 -117 31z m72 -40 c20 -19 21 -93 3
-118 -16 -21 -60 -24 -82 -6 -18 15 -21 110 -3 128 17 17 64 15 82 -4z"/>
<path d="M14913 8914 c-36 -18 -44 -44 -14 -44 11 0 21 4 23 9 6 16 44 21 60
9 9 -7 18 -22 20 -33 3 -17 -4 -21 -48 -25 -63 -7 -84 -23 -84 -66 0 -54 61
-83 106 -49 25 19 34 19 34 0 0 -8 7 -15 15 -15 12 0 15 17 15 93 0 78 -3 97
-18 110 -28 25 -73 30 -109 11z m89 -129 c-4 -23 -37 -55 -57 -55 -21 0 -45
29 -38 46 7 20 41 34 73 31 19 -1 24 -7 22 -22z"/>
<path d="M15190 8913 c-17 -12 -25 -13 -28 -5 -2 7 -10 12 -18 12 -11 0 -14
-22 -14 -111 0 -100 2 -110 18 -107 14 3 17 16 20 83 2 43 8 85 14 92 6 7 26
13 44 13 39 0 43 -8 46 -115 3 -57 6 -70 21 -73 15 -3 17 6 17 92 0 85 -2 97
-22 116 -27 24 -65 26 -98 3z"/>
<path d="M9942 8908 c3 -7 21 -14 42 -16 l37 -3 -3 -77 -3 -77 -37 -3 c-25 -2
-38 -8 -38 -18 0 -11 19 -14 95 -14 76 0 95 3 95 14 0 10 -13 16 -37 18 l-38
3 -3 93 -3 92 -55 0 c-40 0 -55 -4 -52 -12z"/>
<path d="M10710 8830 c0 -77 3 -93 20 -110 24 -24 68 -26 96 -5 25 19 34 19
34 0 0 -8 7 -15 15 -15 12 0 15 19 15 110 0 103 -1 110 -20 110 -17 0 -19 -8
-22 -82 -3 -76 -5 -83 -27 -94 -14 -7 -33 -9 -45 -5 -19 7 -21 17 -24 95 -3
78 -5 86 -22 86 -18 0 -20 -7 -20 -90z"/>
<path d="M12524 8903 c76 -190 83 -243 36 -243 -11 0 -20 -7 -20 -15 0 -22 53
-19 73 3 10 10 35 68 56 128 22 60 43 117 47 127 5 15 3 18 -16 15 -19 -2 -27
-17 -48 -85 -14 -46 -28 -83 -32 -83 -4 0 -18 37 -31 83 -21 70 -28 82 -48 85
-20 3 -23 1 -17 -15z"/>
<path d="M13050 8830 c0 -77 3 -93 20 -110 24 -24 68 -26 96 -5 25 19 34 19
34 0 0 -8 7 -15 15 -15 12 0 15 19 15 110 0 103 -1 110 -20 110 -17 0 -19 -8
-22 -82 -3 -76 -5 -83 -27 -94 -14 -7 -33 -9 -45 -5 -19 7 -21 17 -24 95 -3
78 -5 86 -22 86 -18 0 -20 -7 -20 -90z"/>
<path d="M15384 8903 c76 -190 83 -243 36 -243 -11 0 -20 -7 -20 -15 0 -22 53
-19 73 3 10 10 35 68 56 128 22 60 43 117 47 127 5 15 3 18 -16 15 -19 -2 -27
-17 -48 -85 -14 -46 -28 -83 -32 -83 -4 0 -18 37 -31 83 -21 70 -28 82 -48 85
-20 3 -23 1 -17 -15z"/>
<path d="M6020 8830 c0 -19 7 -20 110 -20 103 0 110 1 110 20 0 19 -7 20 -110
20 -103 0 -110 -1 -110 -20z"/>
<path d="M6280 8830 c0 -19 7 -20 110 -20 103 0 110 1 110 20 0 19 -7 20 -110
20 -103 0 -110 -1 -110 -20z"/>
<path d="M13550 8835 c0 -12 19 -15 110 -15 91 0 110 3 110 15 0 12 -19 15
-110 15 -91 0 -110 -3 -110 -15z"/>
<path d="M8960 8765 c-26 -32 13 -81 48 -59 34 22 22 74 -18 74 -10 0 -23 -7
-30 -15z"/>
<path d="M11290 8761 c-18 -34 10 -68 44 -55 35 13 23 74 -14 74 -11 0 -24 -9
-30 -19z"/>
<path d="M3840 8179 c0 -60 -1 -61 -18 -46 -28 25 -78 21 -107 -8 -22 -21 -25
-33 -25 -93 0 -59 3 -72 23 -90 28 -26 88 -30 111 -6 15 14 16 14 16 0 0 -10
9 -16 25 -16 l26 0 -3 158 c-3 154 -3 157 -25 160 -22 3 -23 0 -23 -59z m-18
-86 c23 -21 24 -89 1 -115 -37 -41 -93 -7 -93 57 0 63 51 95 92 58z"/>
<path d="M3190 8149 c0 -16 3 -29 8 -29 4 0 34 -16 67 -34 l59 -34 -67 -33
c-60 -30 -67 -36 -67 -62 l0 -29 38 22 c20 12 61 36 90 52 78 45 73 62 -38
125 l-90 52 0 -30z"/>
<path d="M3979 8121 c-24 -25 -29 -37 -29 -81 0 -86 28 -119 100 -119 72 0
100 33 100 119 0 44 -5 56 -29 81 -23 23 -38 29 -71 29 -33 0 -48 -6 -71 -29z
m111 -27 c8 -8 13 -35 13 -59 0 -52 -16 -75 -53 -75 -37 0 -53 23 -53 75 0 52
16 75 53 75 15 0 33 -7 40 -16z"/>
<path d="M4210 8035 l0 -115 25 0 c25 0 25 1 25 78 0 85 14 112 58 112 31 0
42 -29 42 -114 0 -75 0 -76 26 -76 l26 0 -4 94 c-3 75 -8 99 -22 115 -23 26
-82 28 -108 4 -17 -15 -18 -15 -18 0 0 11 -8 17 -25 17 l-25 0 0 -115z"/>
<path d="M4513 8135 c-49 -34 -53 -146 -7 -192 35 -35 105 -33 142 5 l27 27
-24 3 c-13 2 -28 -1 -34 -7 -19 -19 -75 -13 -87 8 -19 37 -12 41 66 41 l77 0
-6 42 c-7 55 -43 88 -95 88 -21 0 -47 -7 -59 -15z m95 -37 c26 -26 13 -38 -38
-38 -54 0 -55 1 -40 31 12 22 59 26 78 7z"/>
<path d="M8704 6685 c-10 -25 4 -45 30 -45 27 0 42 26 25 46 -15 19 -48 18
-55 -1z"/>
<path d="M19344 6685 c-10 -25 4 -45 30 -45 30 0 40 13 31 40 -8 24 -53 28
-61 5z"/>
<path d="M21164 6685 c-10 -25 4 -45 30 -45 27 0 42 26 25 46 -15 19 -48 18
-55 -1z"/>
<path d="M8380 6655 c0 -10 11 -15 35 -15 l35 0 0 -120 0 -120 -35 0 c-28 0
-35 -4 -35 -20 0 -19 7 -20 95 -20 88 0 95 1 95 20 0 16 -7 20 -35 20 l-35 0
0 135 0 135 -60 0 c-47 0 -60 -3 -60 -15z"/>
<path d="M12530 6655 c0 -10 11 -15 35 -15 l35 0 0 -120 0 -120 -35 0 c-28 0
-35 -4 -35 -20 0 -19 7 -20 95 -20 88 0 95 1 95 20 0 16 -7 20 -35 20 l-35 0
0 135 0 135 -60 0 c-47 0 -60 -3 -60 -15z"/>
<path d="M16430 6655 c0 -10 11 -15 35 -15 l35 0 0 -120 0 -120 -35 0 c-28 0
-35 -4 -35 -20 0 -19 7 -20 95 -20 88 0 95 1 95 20 0 16 -7 20 -35 20 l-35 0
0 135 0 135 -60 0 c-47 0 -60 -3 -60 -15z"/>
<path d="M8142 6527 c-23 -73 -44 -141 -48 -150 -5 -13 0 -17 18 -17 20 0 27
7 37 40 12 39 12 40 60 40 47 0 48 -1 60 -40 9 -32 16 -40 36 -40 24 0 24 1
11 43 -7 23 -28 90 -47 150 -31 100 -35 107 -59 107 -25 0 -28 -7 -68 -133z
m87 12 c7 -27 11 -52 8 -55 -3 -3 -18 -4 -34 -2 l-30 3 15 53 c8 28 18 52 21
52 4 0 13 -23 20 -51z"/>
<path d="M11190 6654 c0 -10 39 -245 45 -271 6 -28 41 -31 49 -5 3 9 10 45 17
80 6 34 15 62 18 62 4 0 13 -30 21 -67 17 -89 19 -93 41 -93 21 0 21 0 49 166
24 146 24 134 1 134 -21 0 -23 -6 -42 -140 l-12 -85 -13 50 c-6 28 -15 62 -18
78 -4 18 -13 27 -26 27 -20 0 -22 -5 -41 -93 -7 -31 -14 -56 -15 -54 -2 2 -8
39 -14 83 -17 125 -19 134 -41 134 -10 0 -19 -3 -19 -6z"/>
<path d="M15380 6511 c0 -143 1 -151 20 -151 18 0 20 8 22 107 l3 106 56 -104
c41 -76 62 -105 78 -107 21 -3 21 -1 21 147 0 143 -1 151 -20 151 -18 0 -20
-8 -22 -106 l-3 -105 -56 103 c-41 76 -61 104 -77 106 -22 3 -22 2 -22 -147z"/>
<path d="M20320 6510 c0 -143 1 -150 20 -150 17 0 20 7 20 49 l0 48 52 6 c86
11 125 68 94 141 -18 44 -46 56 -127 56 l-59 0 0 -150z m132 93 c22 -19 24
-66 3 -83 -8 -6 -32 -14 -55 -17 l-40 -6 0 62 0 61 37 0 c20 0 45 -7 55 -17z"/>
<path d="M6090 6620 c0 -27 -3 -30 -30 -30 -23 0 -30 -4 -30 -20 0 -16 7 -20
30 -20 l30 0 0 -79 c0 -71 2 -82 22 -95 12 -9 42 -16 65 -16 36 0 43 3 43 20
0 16 -7 20 -33 20 -47 0 -57 15 -57 87 l0 63 45 0 c38 0 45 3 45 20 0 17 -7
20 -45 20 -43 0 -45 1 -45 30 0 23 -4 30 -20 30 -16 0 -20 -7 -20 -30z"/>
<path d="M11800 6620 c0 -27 -3 -30 -30 -30 -23 0 -30 -4 -30 -20 0 -16 7 -20
30 -20 l30 0 0 -79 c0 -71 2 -82 22 -95 12 -9 42 -16 65 -16 36 0 43 3 43 20
0 16 -7 20 -33 20 -47 0 -57 15 -57 87 l0 63 45 0 c38 0 45 3 45 20 0 17 -7
20 -45 20 -43 0 -45 1 -45 30 0 23 -4 30 -20 30 -16 0 -20 -7 -20 -30z"/>
<path d="M14140 6620 c0 -27 -3 -30 -30 -30 -23 0 -30 -4 -30 -20 0 -16 7 -20
30 -20 l30 0 0 -79 c0 -71 2 -82 22 -95 12 -9 42 -16 65 -16 36 0 43 3 43 20
0 16 -7 20 -33 20 -47 0 -57 15 -57 87 l0 63 45 0 c38 0 45 3 45 20 0 17 -7
20 -45 20 -43 0 -45 1 -45 30 0 23 -4 30 -20 30 -16 0 -20 -7 -20 -30z"/>
<path d="M3216 6567 c-45 -45 -41 -158 7 -192 22 -15 82 -20 112 -9 18 7 47
58 38 68 -13 12 -39 5 -51 -14 -15 -24 -54 -26 -76 -4 -23 22 -21 96 2 117 25
23 59 21 74 -3 11 -17 58 -29 58 -15 0 16 -31 63 -45 69 -38 14 -96 6 -119
-17z"/>
<path d="M3464 6567 c-16 -14 -24 -29 -20 -35 10 -16 31 -15 46 3 15 18 51 20
68 3 23 -23 12 -36 -39 -43 -58 -8 -89 -33 -89 -70 0 -37 33 -65 78 -65 21 0
43 5 50 12 9 9 12 9 12 0 0 -7 12 -12 26 -12 l26 0 -4 96 c-3 86 -5 98 -27
115 -33 27 -93 25 -127 -4z m106 -126 c0 -26 -24 -43 -57 -39 -18 2 -29 10
-31 22 -5 24 14 36 56 36 25 0 32 -4 32 -19z"/>
<path d="M3694 6577 c-2 -7 -3 -76 -2 -152 3 -132 4 -140 23 -140 16 0 21 8
25 47 4 39 8 46 20 38 8 -5 32 -10 52 -10 55 0 78 34 78 117 0 55 -4 67 -25
88 -29 29 -79 33 -107 8 -17 -15 -18 -15 -18 0 0 20 -38 23 -46 4z m135 -41
c7 -8 15 -30 18 -50 11 -67 -49 -113 -91 -70 -21 21 -21 92 1 116 19 21 56 24
72 4z"/>
<path d="M3981 6476 c42 -118 44 -144 9 -153 -29 -8 -26 -43 4 -43 44 0 65 31
111 160 25 69 45 131 45 138 0 8 -9 12 -22 10 -19 -2 -27 -18 -49 -88 -16 -50
-29 -79 -33 -70 -3 8 -16 47 -29 85 -21 61 -27 70 -50 73 l-27 3 41 -115z"/>
<path d="M5026 6567 c-45 -45 -41 -158 7 -192 22 -15 82 -20 112 -9 18 7 47
58 38 68 -13 12 -39 5 -51 -14 -15 -24 -54 -26 -76 -4 -23 22 -21 96 2 117 25
23 59 21 74 -3 11 -17 58 -29 58 -15 0 16 -31 63 -45 69 -38 14 -96 6 -119
-17z"/>
<path d="M5250 6570 c0 -15 7 -20 25 -20 24 0 25 -2 25 -75 0 -68 -2 -75 -20
-75 -13 0 -20 -7 -20 -20 0 -18 7 -20 75 -20 68 0 75 2 75 20 0 16 -7 20 -36
20 l-37 0 7 53 c9 64 31 89 80 89 31 0 36 3 36 24 0 21 -4 24 -39 24 -31 0
-44 -6 -60 -26 l-21 -27 0 27 c0 24 -3 26 -45 26 -38 0 -45 -3 -45 -20z"/>
<path d="M5553 6575 c-49 -34 -53 -146 -7 -192 35 -35 105 -33 142 5 l27 27
-24 3 c-13 2 -28 -1 -34 -7 -19 -19 -75 -13 -87 8 -19 37 -12 41 66 41 l77 0
-6 42 c-7 55 -43 88 -95 88 -21 0 -47 -7 -59 -15z m95 -37 c26 -26 13 -38 -38
-38 -54 0 -55 1 -40 31 12 22 59 26 78 7z"/>
<path d="M5804 6567 c-16 -14 -24 -29 -20 -35 10 -16 31 -15 46 3 15 18 51 20
68 3 23 -23 12 -36 -39 -43 -58 -8 -89 -33 -89 -70 0 -37 33 -65 78 -65 21 0
43 5 50 12 9 9 12 9 12 0 0 -7 12 -12 26 -12 l26 0 -4 96 c-3 86 -5 98 -27
115 -33 27 -93 25 -127 -4z m106 -126 c0 -26 -24 -43 -57 -39 -18 2 -29 10
-31 22 -5 24 14 36 56 36 25 0 32 -4 32 -19z"/>
<path d="M6333 6575 c-49 -34 -53 -146 -7 -192 35 -35 105 -33 142 5 l27 27
-24 3 c-13 2 -28 -1 -34 -7 -19 -19 -75 -13 -87 8 -19 37 -12 41 66 41 l77 0
-6 42 c-7 55 -43 88 -95 88 -21 0 -47 -7 -59 -15z m95 -37 c26 -26 13 -38 -38
-38 -54 0 -55 1 -40 31 12 22 59 26 78 7z"/>
<path d="M6812 6496 c3 -75 8 -99 22 -115 21 -23 74 -28 107 -11 13 7 19 7 19
0 0 -5 11 -10 25 -10 l26 0 -3 113 c-3 108 -4 112 -25 115 -22 3 -23 1 -23
-76 0 -84 -14 -112 -56 -112 -36 0 -44 20 -44 107 0 83 0 83 -26 83 l-26 0 4
-94z"/>
<path d="M7117 6579 c-10 -6 -22 -22 -28 -36 -14 -38 11 -69 69 -86 51 -15 66
-39 34 -56 -13 -7 -26 -6 -46 5 -36 18 -66 18 -66 0 0 -45 122 -64 160 -26 23
23 26 72 6 89 -7 6 -37 18 -65 27 -39 11 -51 19 -49 32 4 21 44 28 73 12 12
-7 31 -10 41 -8 17 3 16 6 -8 31 -29 29 -86 37 -121 16z"/>
<path d="M7373 6575 c-49 -34 -53 -146 -7 -192 35 -35 105 -33 142 5 l27 27
-24 3 c-13 2 -28 -1 -34 -7 -19 -19 -75 -13 -87 8 -19 37 -12 41 66 41 l77 0
-6 42 c-7 55 -43 88 -95 88 -21 0 -47 -7 -59 -15z m95 -37 c26 -26 13 -38 -38
-38 -54 0 -55 1 -40 31 12 22 59 26 78 7z"/>
<path d="M7590 6570 c0 -15 7 -20 25 -20 24 0 25 -2 25 -75 0 -68 -2 -75 -20
-75 -13 0 -20 -7 -20 -20 0 -18 7 -20 75 -20 68 0 75 2 75 20 0 16 -7 20 -36
20 l-37 0 7 53 c9 64 31 89 80 89 31 0 36 3 36 24 0 21 -4 24 -39 24 -31 0
-44 -6 -60 -26 l-21 -27 0 27 c0 24 -3 26 -45 26 -38 0 -45 -3 -45 -20z"/>
<path d="M8640 6570 c0 -16 7 -20 35 -20 l35 0 0 -75 0 -75 -35 0 c-28 0 -35
-4 -35 -20 0 -19 7 -20 95 -20 88 0 95 1 95 20 0 16 -7 20 -35 20 l-35 0 0 95
0 95 -60 0 c-53 0 -60 -2 -60 -20z"/>
<path d="M8931 6573 c-46 -37 -46 -159 0 -195 30 -25 103 -24 129 2 25 25 26
50 1 50 -10 0 -24 -7 -31 -15 -18 -22 -67 -19 -80 4 -15 30 -12 97 6 115 22
22 61 20 76 -4 16 -26 48 -26 48 -1 0 51 -104 81 -149 44z"/>
<path d="M9185 6565 c-22 -21 -25 -33 -25 -90 0 -57 3 -69 25 -90 36 -37 106
-35 143 3 26 26 26 27 6 30 -11 2 -33 -4 -48 -12 -31 -16 -54 -12 -73 12 -28
34 -16 42 63 42 l77 0 -6 42 c-8 56 -43 88 -98 88 -29 0 -47 -7 -64 -25z m103
-27 c7 -7 12 -20 12 -30 0 -15 -9 -18 -50 -18 -52 0 -58 7 -40 41 12 22 59 26
78 7z"/>
<path d="M10209 6561 c-24 -25 -29 -37 -29 -81 0 -86 28 -119 100 -119 72 0
100 33 100 119 0 44 -5 56 -29 81 -23 23 -38 29 -71 29 -33 0 -48 -6 -71 -29z
m111 -27 c8 -8 13 -35 13 -59 0 -52 -16 -75 -53 -75 -37 0 -53 23 -53 75 0 52
16 75 53 75 15 0 33 -7 40 -16z"/>
<path d="M10440 6570 c0 -15 7 -20 25 -20 24 0 25 -2 25 -75 0 -68 -2 -75 -20
-75 -13 0 -20 -7 -20 -20 0 -18 7 -20 75 -20 68 0 75 2 75 20 0 16 -7 20 -36
20 l-37 0 7 53 c9 64 31 89 80 89 31 0 36 3 36 24 0 21 -4 24 -39 24 -31 0
-44 -6 -60 -26 l-21 -27 0 27 c0 24 -3 26 -45 26 -38 0 -45 -3 -45 -20z"/>
<path d="M10719 6564 c-20 -22 -24 -36 -24 -91 0 -59 3 -67 28 -89 32 -28 73
-31 105 -8 21 14 22 14 22 -9 0 -42 -43 -63 -85 -41 -32 16 -65 18 -65 4 0 -5
9 -19 20 -30 30 -30 119 -28 148 3 20 21 22 34 22 155 0 125 -1 132 -20 132
-12 0 -20 -7 -20 -17 0 -15 -1 -15 -18 0 -29 26 -84 22 -113 -9z m115 -36 c34
-48 9 -128 -39 -128 -31 0 -55 35 -55 79 0 64 62 96 94 49z"/>
<path d="M11533 6580 c-12 -5 -27 -18 -33 -29 -9 -18 -8 -21 13 -21 12 0 28 5
34 11 6 6 23 9 39 7 21 -2 30 -9 32 -25 3 -18 -3 -23 -35 -28 -74 -12 -81 -15
-93 -44 -12 -30 -2 -66 24 -83 16 -11 64 -10 87 2 13 7 19 7 19 0 0 -5 12 -10
26 -10 l26 0 -4 96 c-4 86 -7 99 -27 115 -24 20 -71 24 -108 9z m87 -138 c0
-26 -20 -42 -52 -42 -30 0 -44 19 -34 45 3 10 19 15 46 15 32 0 40 -4 40 -18z"/>
<path d="M12035 6565 c-22 -21 -25 -33 -25 -90 0 -57 3 -69 25 -90 36 -37 106
-35 143 3 26 26 26 27 6 30 -11 2 -33 -4 -48 -12 -31 -16 -54 -12 -73 12 -28
34 -16 42 63 42 l77 0 -6 42 c-8 56 -43 88 -98 88 -29 0 -47 -7 -64 -25z m103
-27 c7 -7 12 -20 12 -30 0 -15 -9 -18 -50 -18 -52 0 -58 7 -40 41 12 22 59 26
78 7z"/>
<path d="M12260 6570 c0 -15 7 -20 25 -20 25 0 25 -1 25 -80 0 -73 -2 -80 -20
-80 -11 0 -20 -7 -20 -15 0 -12 15 -15 75 -15 59 0 75 3 75 14 0 9 -12 16 -32
18 -33 3 -33 3 -32 57 2 66 26 95 79 95 30 0 35 3 35 23 0 35 -62 33 -95 -3
l-25 -27 0 27 c0 24 -3 26 -45 26 -38 0 -45 -3 -45 -20z"/>
<path d="M12809 6561 c-25 -26 -29 -37 -29 -86 0 -49 4 -60 29 -86 23 -23 38
-29 71 -29 33 0 48 6 71 29 25 26 29 37 29 86 0 49 -4 60 -29 86 -23 23 -38
29 -71 29 -33 0 -48 -6 -71 -29z m112 -28 c8 -9 14 -35 14 -58 0 -51 -18 -75
-55 -75 -37 0 -55 24 -55 75 0 51 18 75 55 75 15 0 34 -7 41 -17z"/>
<path d="M13069 6561 c-25 -26 -29 -37 -29 -86 0 -49 4 -60 29 -86 23 -23 38
-29 71 -29 33 0 48 6 71 29 25 26 29 37 29 86 0 49 -4 60 -29 86 -23 23 -38
29 -71 29 -33 0 -48 -6 -71 -29z m112 -28 c8 -9 14 -35 14 -58 0 -51 -18 -75
-55 -75 -37 0 -55 24 -55 75 0 51 18 75 55 75 15 0 34 -7 41 -17z"/>
<path d="M14383 6575 c-49 -34 -53 -146 -7 -192 35 -35 105 -33 142 5 l27 27
-24 3 c-13 2 -28 -1 -34 -7 -19 -19 -75 -13 -87 8 -19 37 -12 41 66 41 l77 0
-6 42 c-7 55 -43 88 -95 88 -21 0 -47 -7 -59 -15z m95 -37 c26 -26 13 -38 -38
-38 -54 0 -55 1 -40 31 12 22 59 26 78 7z"/>
<path d="M14634 6567 c-16 -14 -24 -29 -20 -35 10 -16 31 -15 46 3 15 18 51
20 68 3 23 -23 12 -36 -39 -43 -58 -8 -89 -33 -89 -70 0 -37 33 -65 78 -65 21
0 43 5 50 12 9 9 12 9 12 0 0 -7 12 -12 26 -12 l26 0 -4 96 c-3 86 -5 98 -27
115 -33 27 -93 25 -127 -4z m106 -126 c0 -26 -24 -43 -57 -39 -18 2 -29 10
-31 22 -5 24 14 36 56 36 25 0 32 -4 32 -19z"/>
<path d="M14850 6475 c0 -108 1 -115 20 -115 18 0 20 7 20 83 0 88 9 114 34
104 13 -5 16 -23 16 -97 0 -83 1 -90 20 -90 18 0 20 7 20 83 0 88 9 114 34
104 13 -5 16 -23 16 -97 0 -83 1 -90 20 -90 19 0 20 7 20 103 0 67 -4 107 -12
115 -17 17 -53 15 -69 -4 -11 -14 -13 -14 -21 0 -11 19 -49 21 -66 4 -9 -9
-12 -9 -12 0 0 7 -9 12 -20 12 -19 0 -20 -7 -20 -115z"/>
<path d="M15693 6580 c-12 -5 -27 -18 -33 -29 -9 -18 -8 -21 13 -21 12 0 28 5
34 11 6 6 23 9 39 7 21 -2 30 -9 32 -25 3 -18 -3 -23 -35 -28 -74 -12 -81 -15
-93 -44 -12 -30 -2 -66 24 -83 16 -11 64 -10 87 2 13 7 19 7 19 0 0 -5 12 -10
26 -10 l26 0 -4 96 c-4 86 -7 99 -27 115 -24 20 -71 24 -108 9z m87 -138 c0
-26 -20 -42 -52 -42 -30 0 -44 19 -34 45 3 10 19 15 46 15 32 0 40 -4 40 -18z"/>
<path d="M15910 6440 c0 -143 1 -150 20 -150 17 0 20 7 20 52 0 49 1 50 18 35
28 -25 78 -21 107 8 22 21 25 33 25 90 0 57 -3 69 -25 90 -29 29 -79 33 -107
8 -17 -15 -18 -15 -18 0 0 10 -8 17 -20 17 -19 0 -20 -7 -20 -150z m134 88
c34 -48 9 -128 -39 -128 -35 0 -55 26 -55 72 0 70 60 105 94 56z"/>
<path d="M16189 6561 c-25 -26 -29 -37 -29 -86 0 -49 4 -60 29 -86 23 -23 38
-29 71 -29 33 0 48 6 71 29 25 26 29 37 29 86 0 49 -4 60 -29 86 -23 23 -38
29 -71 29 -33 0 -48 -6 -71 -29z m112 -28 c8 -9 14 -35 14 -58 0 -51 -18 -75
-55 -75 -37 0 -55 24 -55 75 0 51 18 75 55 75 15 0 34 -7 41 -17z"/>
<path d="M16715 6565 c-22 -21 -25 -33 -25 -90 0 -57 3 -69 25 -90 36 -37 106
-35 143 3 26 26 26 27 6 30 -11 2 -33 -4 -48 -12 -31 -16 -54 -12 -73 12 -28
34 -16 42 63 42 l77 0 -6 42 c-8 56 -43 88 -98 88 -29 0 -47 -7 -64 -25z m103
-27 c7 -7 12 -20 12 -30 0 -15 -9 -18 -50 -18 -52 0 -58 7 -40 41 12 22 59 26
78 7z"/>
<path d="M16993 6580 c-12 -5 -27 -18 -33 -29 -9 -18 -8 -21 13 -21 12 0 28 5
34 11 6 6 23 9 39 7 21 -2 30 -9 32 -25 3 -18 -3 -23 -35 -28 -74 -12 -81 -15
-93 -44 -12 -30 -2 -66 24 -83 16 -11 64 -10 87 2 13 7 19 7 19 0 0 -5 12 -10
26 -10 l26 0 -4 96 c-4 86 -7 99 -27 115 -24 20 -71 24 -108 9z m87 -138 c0
-26 -20 -42 -52 -42 -30 0 -44 19 -34 45 3 10 19 15 46 15 32 0 40 -4 40 -18z"/>
<path d="M17194 6577 c-2 -7 -3 -58 -2 -113 3 -94 4 -99 26 -102 21 -3 22 -1
22 77 0 86 12 111 54 111 38 0 46 -19 46 -107 0 -76 2 -83 20 -83 19 0 20 7
20 95 0 82 -3 98 -20 115 -24 24 -67 26 -97 5 -19 -13 -22 -13 -27 0 -7 19
-35 20 -42 2z"/>
<path d="M18277 6579 c-10 -6 -22 -22 -28 -36 -14 -38 11 -69 69 -86 51 -15
66 -39 34 -56 -13 -7 -26 -6 -46 5 -36 18 -66 18 -66 0 0 -45 122 -64 160 -26
23 23 26 72 6 89 -7 6 -37 18 -65 27 -39 11 -51 19 -49 32 4 21 44 28 73 12
12 -7 31 -10 41 -8 17 3 16 6 -8 31 -29 29 -86 37 -121 16z"/>
<path d="M18533 6575 c-49 -34 -53 -146 -7 -192 35 -35 105 -33 142 5 l27 27
-24 3 c-13 2 -28 -1 -34 -7 -19 -19 -75 -13 -87 8 -19 37 -12 41 66 41 l77 0
-6 42 c-7 55 -43 88 -95 88 -21 0 -47 -7 -59 -15z m95 -37 c26 -26 13 -38 -38
-38 -54 0 -55 1 -40 31 12 22 59 26 78 7z"/>
<path d="M18750 6570 c0 -15 7 -20 25 -20 24 0 25 -2 25 -75 0 -68 -2 -75 -20
-75 -13 0 -20 -7 -20 -20 0 -18 7 -20 75 -20 68 0 75 2 75 20 0 16 -7 20 -36
20 l-37 0 7 53 c9 64 31 89 80 89 31 0 36 3 36 24 0 21 -4 24 -39 24 -31 0
-44 -6 -60 -26 l-21 -27 0 27 c0 24 -3 26 -45 26 -38 0 -45 -3 -45 -20z"/>
<path d="M19010 6578 c0 -7 17 -59 37 -115 34 -95 39 -103 63 -103 24 0 29 8
63 104 20 57 37 109 37 116 0 6 -10 10 -22 8 -18 -2 -27 -18 -49 -88 -16 -48
-30 -78 -33 -70 -3 8 -16 47 -29 85 -19 55 -28 71 -45 73 -13 2 -22 -2 -22
-10z"/>
<path d="M19280 6570 c0 -16 7 -20 35 -20 l35 0 0 -75 0 -75 -35 0 c-28 0 -35
-4 -35 -20 0 -19 7 -20 95 -20 88 0 95 1 95 20 0 16 -7 20 -35 20 l-35 0 0 95
0 95 -60 0 c-53 0 -60 -2 -60 -20z"/>
<path d="M19566 6567 c-45 -45 -41 -158 7 -192 22 -15 82 -20 112 -9 18 7 47
58 38 68 -13 12 -39 5 -51 -14 -15 -24 -54 -26 -76 -4 -23 22 -21 96 2 117 25
23 59 21 74 -3 11 -17 58 -29 58 -15 0 16 -31 63 -45 69 -38 14 -96 6 -119
-17z"/>
<path d="M19833 6575 c-49 -34 -53 -146 -7 -192 35 -35 105 -33 142 5 l27 27
-24 3 c-13 2 -28 -1 -34 -7 -19 -19 -75 -13 -87 8 -19 37 -12 41 66 41 l77 0
-6 42 c-7 55 -43 88 -95 88 -21 0 -47 -7 -59 -15z m95 -37 c26 -26 13 -38 -38
-38 -54 0 -55 1 -40 31 12 22 59 26 78 7z"/>
<path d="M20623 6580 c-12 -5 -27 -18 -33 -29 -9 -18 -8 -21 13 -21 12 0 28 5
34 11 6 6 23 9 39 7 21 -2 30 -9 32 -25 3 -18 -3 -23 -35 -28 -74 -12 -81 -15
-93 -44 -12 -30 -2 -66 24 -83 16 -11 64 -10 87 2 13 7 19 7 19 0 0 -5 12 -10
26 -10 l26 0 -4 96 c-4 86 -7 99 -27 115 -24 20 -71 24 -108 9z m87 -138 c0
-26 -20 -42 -52 -42 -30 0 -44 19 -34 45 3 10 19 15 46 15 32 0 40 -4 40 -18z"/>
<path d="M20830 6570 c0 -15 7 -20 25 -20 25 0 25 -1 25 -80 0 -73 -2 -80 -20
-80 -11 0 -20 -7 -20 -15 0 -12 15 -15 75 -15 59 0 75 3 75 14 0 9 -12 16 -32
18 -33 3 -33 3 -32 57 2 66 26 95 79 95 30 0 35 3 35 23 0 35 -62 33 -95 -3
l-25 -27 0 27 c0 24 -3 26 -45 26 -38 0 -45 -3 -45 -20z"/>
<path d="M21100 6570 c0 -16 7 -20 35 -20 l35 0 0 -75 0 -75 -35 0 c-28 0 -35
-4 -35 -20 0 -19 7 -20 95 -20 88 0 95 1 95 20 0 16 -7 20 -35 20 l-35 0 0 95
0 95 -60 0 c-53 0 -60 -2 -60 -20z"/>
<path d="M21392 6574 c-15 -10 -22 -25 -22 -49 0 -38 22 -58 77 -70 44 -9 58
-28 37 -50 -17 -17 -65 -13 -72 6 -5 12 -52 12 -52 -1 0 -27 41 -50 90 -50 57
0 90 26 90 71 0 33 -12 43 -75 62 -53 15 -69 39 -37 56 13 7 26 6 46 -5 36
-18 56 -18 56 0 0 23 -41 46 -80 46 -20 0 -46 -7 -58 -16z"/>
<path d="M4460 6490 c0 -19 7 -20 110 -20 103 0 110 1 110 20 0 19 -7 20 -110
20 -103 0 -110 -1 -110 -20z"/>
<path d="M4720 6490 c0 -19 7 -20 110 -20 103 0 110 1 110 20 0 19 -7 20 -110
20 -103 0 -110 -1 -110 -20z"/>
<path d="M6540 6490 c0 -19 7 -20 110 -20 103 0 110 1 110 20 0 19 -7 20 -110
20 -103 0 -110 -1 -110 -20z"/>
<path d="M9660 6490 c0 -19 7 -20 110 -20 103 0 110 1 110 20 0 19 -7 20 -110
20 -103 0 -110 -1 -110 -20z"/>
<path d="M9920 6490 c0 -19 7 -20 110 -20 103 0 110 1 110 20 0 19 -7 20 -110
20 -103 0 -110 -1 -110 -20z"/>
<path d="M13550 6490 c0 -19 7 -20 110 -20 103 0 110 1 110 20 0 19 -7 20
-110 20 -103 0 -110 -1 -110 -20z"/>
<path d="M13810 6490 c0 -19 7 -20 110 -20 103 0 110 1 110 20 0 19 -7 20
-110 20 -103 0 -110 -1 -110 -20z"/>
<path d="M17700 6490 c0 -19 7 -20 110 -20 103 0 110 1 110 20 0 19 -7 20
-110 20 -103 0 -110 -1 -110 -20z"/>
<path d="M17960 6490 c0 -19 7 -20 110 -20 103 0 110 1 110 20 0 19 -7 20
-110 20 -103 0 -110 -1 -110 -20z"/>
<path d="M8780 5839 c0 -60 -1 -61 -18 -46 -28 25 -78 21 -107 -8 -22 -21 -25
-33 -25 -93 0 -59 3 -72 23 -90 28 -26 88 -30 111 -6 15 14 16 14 16 0 0 -10
9 -16 25 -16 l26 0 -3 158 c-3 154 -3 157 -25 160 -22 3 -23 0 -23 -59z m-18
-86 c23 -21 24 -89 1 -115 -37 -41 -93 -7 -93 57 0 63 51 95 92 58z"/>
<path d="M5830 5840 c0 -27 -3 -30 -30 -30 -23 0 -30 -4 -30 -20 0 -16 7 -20
30 -20 l30 0 0 -79 c0 -71 2 -82 22 -95 12 -9 42 -16 65 -16 36 0 43 3 43 20
0 16 -7 20 -33 20 -47 0 -57 15 -57 87 l0 63 45 0 c38 0 45 3 45 20 0 17 -7
20 -45 20 -43 0 -45 1 -45 30 0 23 -4 30 -20 30 -16 0 -20 -7 -20 -30z"/>
<path d="M6610 5840 c0 -27 -3 -30 -30 -30 -23 0 -30 -4 -30 -20 0 -16 7 -20
30 -20 l30 0 0 -79 c0 -71 2 -82 22 -95 12 -9 42 -16 65 -16 36 0 43 3 43 20
0 16 -7 20 -33 20 -47 0 -57 15 -57 87 l0 63 45 0 c38 0 45 3 45 20 0 17 -7
20 -45 20 -43 0 -45 1 -45 30 0 23 -4 30 -20 30 -16 0 -20 -7 -20 -30z"/>
<path d="M8170 5840 c0 -27 -3 -30 -30 -30 -23 0 -30 -4 -30 -20 0 -16 7 -20
30 -20 l30 0 0 -79 c0 -71 2 -82 22 -95 12 -9 42 -16 65 -16 36 0 43 3 43 20
0 16 -7 20 -33 20 -47 0 -57 15 -57 87 l0 63 45 0 c38 0 45 3 45 20 0 17 -7
20 -45 20 -43 0 -45 1 -45 30 0 23 -4 30 -20 30 -16 0 -20 -7 -20 -30z"/>
<path d="M3190 5809 c0 -16 3 -29 8 -29 4 0 34 -16 67 -34 l59 -34 -67 -33
c-60 -30 -67 -36 -67 -62 l0 -29 38 22 c20 12 61 36 90 52 78 45 73 62 -38
125 l-90 52 0 -30z"/>
<path d="M3692 5716 c3 -75 8 -99 22 -115 21 -23 74 -28 107 -11 13 7 19 7 19
0 0 -5 11 -10 25 -10 l26 0 -3 113 c-3 108 -4 112 -25 115 -22 3 -23 1 -23
-76 0 -84 -14 -112 -56 -112 -36 0 -44 20 -44 107 0 83 0 83 -26 83 l-26 0 4
-94z"/>
<path d="M3997 5799 c-10 -6 -22 -22 -28 -36 -14 -38 11 -69 69 -86 51 -15 66
-39 34 -56 -13 -7 -26 -6 -46 5 -36 18 -66 18 -66 0 0 -45 122 -64 160 -26 23
23 26 72 6 89 -7 6 -37 18 -65 27 -39 11 -51 19 -49 32 4 21 44 28 73 12 12
-7 31 -10 41 -8 17 3 16 6 -8 31 -29 29 -86 37 -121 16z"/>
<path d="M4253 5795 c-49 -34 -53 -146 -7 -192 35 -35 105 -33 142 5 l27 27
-24 3 c-13 2 -28 -1 -34 -7 -19 -19 -75 -13 -87 8 -19 37 -12 41 66 41 l77 0
-6 42 c-7 55 -43 88 -95 88 -21 0 -47 -7 -59 -15z m95 -37 c26 -26 13 -38 -38
-38 -54 0 -55 1 -40 31 12 22 59 26 78 7z"/>
<path d="M4470 5790 c0 -15 7 -20 25 -20 24 0 25 -2 25 -75 0 -68 -2 -75 -20
-75 -13 0 -20 -7 -20 -20 0 -18 7 -20 75 -20 68 0 75 2 75 20 0 16 -7 20 -36
20 l-37 0 7 53 c9 64 31 89 80 89 31 0 36 3 36 24 0 21 -4 24 -39 24 -31 0
-44 -6 -60 -26 l-21 -27 0 27 c0 24 -3 26 -45 26 -38 0 -45 -3 -45 -20z"/>
<path d="M5026 5787 c-45 -45 -41 -158 7 -192 22 -15 82 -20 112 -9 18 7 47
58 38 68 -13 12 -39 5 -51 -14 -15 -24 -54 -26 -76 -4 -23 22 -21 96 2 117 25
23 59 21 74 -3 11 -17 58 -29 58 -15 0 16 -31 63 -45 69 -38 14 -96 6 -119
-17z"/>
<path d="M5279 5781 c-24 -25 -29 -37 -29 -81 0 -86 28 -119 100 -119 72 0
100 33 100 119 0 44 -5 56 -29 81 -23 23 -38 29 -71 29 -33 0 -48 -6 -71 -29z
m111 -27 c8 -8 13 -35 13 -59 0 -52 -16 -75 -53 -75 -37 0 -53 23 -53 75 0 52
16 75 53 75 15 0 33 -7 40 -16z"/>
<path d="M5510 5695 l0 -115 25 0 c25 0 25 1 25 78 0 85 14 112 58 112 31 0
42 -29 42 -114 0 -75 0 -76 26 -76 l26 0 -4 94 c-3 75 -8 99 -22 115 -23 26
-82 28 -108 4 -17 -15 -18 -15 -18 0 0 11 -8 17 -25 17 l-25 0 0 -115z"/>
<path d="M6073 5795 c-49 -34 -53 -146 -7 -192 35 -35 105 -33 142 5 l27 27
-24 3 c-13 2 -28 -1 -34 -7 -19 -19 -75 -13 -87 8 -19 37 -12 41 66 41 l77 0
-6 42 c-7 55 -43 88 -95 88 -21 0 -47 -7 -59 -15z m95 -37 c26 -26 13 -38 -38
-38 -54 0 -55 1 -40 31 12 22 59 26 78 7z"/>
<path d="M6290 5804 c0 -3 14 -26 32 -51 17 -26 31 -52 31 -58 0 -6 -14 -32
-31 -58 -18 -25 -32 -48 -32 -51 0 -3 11 -6 24 -6 18 0 31 11 49 41 l25 41 27
-41 c20 -29 35 -41 51 -41 13 0 24 3 24 6 0 3 -14 26 -32 51 -17 26 -31 52
-31 58 0 6 14 32 31 58 18 25 32 48 32 51 0 3 -11 6 -24 6 -18 0 -31 -11 -49
-41 l-25 -41 -27 41 c-20 29 -35 41 -51 41 -13 0 -24 -3 -24 -6z"/>
<path d="M7106 5787 c-45 -45 -41 -158 7 -192 22 -15 82 -20 112 -9 18 7 47
58 38 68 -13 12 -39 5 -51 -14 -15 -24 -54 -26 -76 -4 -23 22 -21 96 2 117 25
23 59 21 74 -3 11 -17 58 -29 58 -15 0 16 -31 63 -45 69 -38 14 -96 6 -119
-17z"/>
<path d="M7330 5790 c0 -15 7 -20 25 -20 24 0 25 -2 25 -75 0 -68 -2 -75 -20
-75 -13 0 -20 -7 -20 -20 0 -18 7 -20 75 -20 68 0 75 2 75 20 0 16 -7 20 -36
20 l-37 0 7 53 c9 64 31 89 80 89 31 0 36 3 36 24 0 21 -4 24 -39 24 -31 0
-44 -6 -60 -26 l-21 -27 0 27 c0 24 -3 26 -45 26 -38 0 -45 -3 -45 -20z"/>
<path d="M7633 5795 c-49 -34 -53 -146 -7 -192 35 -35 105 -33 142 5 l27 27
-24 3 c-13 2 -28 -1 -34 -7 -19 -19 -75 -13 -87 8 -19 37 -12 41 66 41 l77 0
-6 42 c-7 55 -43 88 -95 88 -21 0 -47 -7 -59 -15z m95 -37 c26 -26 13 -38 -38
-38 -54 0 -55 1 -40 31 12 22 59 26 78 7z"/>
<path d="M7884 5787 c-16 -14 -24 -29 -20 -35 10 -16 31 -15 46 3 15 18 51 20
68 3 23 -23 12 -36 -39 -43 -58 -8 -89 -33 -89 -70 0 -37 33 -65 78 -65 21 0
43 5 50 12 9 9 12 9 12 0 0 -7 12 -12 26 -12 l26 0 -4 96 c-3 86 -5 98 -27
115 -33 27 -93 25 -127 -4z m106 -126 c0 -26 -24 -43 -57 -39 -18 2 -29 10
-31 22 -5 24 14 36 56 36 25 0 32 -4 32 -19z"/>
<path d="M8413 5795 c-49 -34 -53 -146 -7 -192 35 -35 105 -33 142 5 l27 27
-24 3 c-13 2 -28 -1 -34 -7 -19 -19 -75 -13 -87 8 -19 37 -12 41 66 41 l77 0
-6 42 c-7 55 -43 88 -95 88 -21 0 -47 -7 -59 -15z m95 -37 c26 -26 13 -38 -38
-38 -54 0 -55 1 -40 31 12 22 59 26 78 7z"/>
<path d="M6104 4345 c-10 -25 4 -45 30 -45 27 0 42 26 25 46 -15 19 -48 18
-55 -1z"/>
<path d="M11034 4345 c-10 -25 4 -45 30 -45 27 0 42 26 25 46 -15 19 -48 18
-55 -1z"/>
<path d="M12594 4345 c-10 -25 4 -45 30 -45 27 0 42 26 25 46 -15 19 -48 18
-55 -1z"/>
<path d="M5772 4178 c3 -150 3 -153 26 -156 21 -3 22 -1 22 77 0 86 12 111 54
111 38 0 46 -19 46 -107 0 -76 2 -83 20 -83 19 0 20 7 20 95 0 82 -3 98 -20
115 -24 24 -67 26 -98 4 -22 -15 -22 -15 -22 40 0 53 -1 56 -25 56 l-26 0 3
-152z"/>
<path d="M6552 4178 c3 -150 3 -153 26 -156 21 -3 22 -1 22 77 0 86 12 111 54
111 38 0 46 -19 46 -107 0 -76 2 -83 20 -83 19 0 20 7 20 95 0 82 -3 98 -20
115 -24 24 -67 26 -98 4 -22 -15 -22 -15 -22 40 0 53 -1 56 -25 56 l-26 0 3
-152z"/>
<path d="M7418 4318 c-9 -7 -18 -25 -22 -40 -4 -20 -13 -27 -33 -30 -17 -2
-29 -10 -31 -20 -3 -14 3 -18 27 -18 l31 0 0 -95 c0 -95 0 -95 25 -95 25 0 25
0 25 95 l0 95 45 0 c38 0 45 3 45 20 0 17 -7 20 -45 20 -37 0 -45 3 -45 19 0
21 19 31 61 31 19 0 29 5 29 15 0 19 -89 21 -112 3z"/>
<path d="M8780 4274 c0 -55 0 -55 -22 -40 -33 23 -75 20 -103 -9 -22 -21 -25
-33 -25 -90 0 -57 3 -69 25 -90 29 -29 79 -33 107 -8 17 15 18 15 18 0 0 -10
8 -17 20 -17 19 0 20 7 20 155 0 148 -1 155 -20 155 -18 0 -20 -7 -20 -56z
m-16 -80 c10 -9 16 -33 16 -59 0 -48 -19 -75 -52 -75 -34 0 -58 29 -58 69 0
68 54 105 94 65z"/>
<path d="M10080 4274 c0 -55 0 -55 -22 -40 -33 23 -75 20 -103 -9 -22 -21 -25
-33 -25 -90 0 -57 3 -69 25 -90 29 -29 79 -33 107 -8 17 15 18 15 18 0 0 -10
8 -17 20 -17 19 0 20 7 20 155 0 148 -1 155 -20 155 -18 0 -20 -7 -20 -56z
m-16 -80 c10 -9 16 -33 16 -59 0 -48 -19 -75 -52 -75 -34 0 -58 29 -58 69 0
68 54 105 94 65z"/>
<path d="M12088 4318 c-9 -7 -18 -25 -22 -40 -4 -20 -13 -27 -33 -30 -17 -2
-29 -10 -31 -20 -3 -14 3 -18 27 -18 l31 0 0 -95 c0 -95 0 -95 25 -95 25 0 25
0 25 95 l0 95 45 0 c38 0 45 3 45 20 0 17 -7 20 -45 20 -37 0 -45 3 -45 19 0
21 19 31 61 31 19 0 29 5 29 15 0 19 -89 21 -112 3z"/>
<path d="M12790 4315 c0 -10 11 -15 35 -15 l35 0 0 -120 0 -120 -35 0 c-28 0
-35 -4 -35 -20 0 -19 7 -20 95 -20 88 0 95 1 95 20 0 16 -7 20 -35 20 l-35 0
0 135 0 135 -60 0 c-47 0 -60 -3 -60 -15z"/>
<path d="M13450 4274 c0 -55 0 -55 -22 -40 -33 23 -75 20 -103 -9 -22 -21 -25
-33 -25 -90 0 -57 3 -69 25 -90 29 -29 79 -33 107 -8 17 15 18 15 18 0 0 -10
8 -17 20 -17 19 0 20 7 20 155 0 148 -1 155 -20 155 -18 0 -20 -7 -20 -56z
m-16 -80 c10 -9 16 -33 16 -59 0 -48 -19 -75 -52 -75 -34 0 -58 29 -58 69 0
68 54 105 94 65z"/>
<path d="M5290 4250 c0 -63 2 -70 20 -70 18 0 20 7 20 70 0 63 -2 70 -20 70
-18 0 -20 -7 -20 -70z"/>
<path d="M5370 4250 c0 -63 2 -70 20 -70 18 0 20 7 20 70 0 63 -2 70 -20 70
-18 0 -20 -7 -20 -70z"/>
<path d="M13595 4295 c-14 -13 -25 -31 -25 -40 0 -22 37 -19 50 5 19 35 80 20
80 -20 0 -9 -16 -30 -35 -47 -41 -36 -49 -83 -15 -83 11 0 23 8 27 18 3 9 21
34 40 55 39 44 42 79 8 112 -34 35 -96 35 -130 0z"/>
<path d="M13860 4250 c0 -63 2 -70 20 -70 18 0 20 7 20 70 0 63 -2 70 -20 70
-18 0 -20 -7 -20 -70z"/>
<path d="M13940 4250 c0 -63 2 -70 20 -70 18 0 20 7 20 70 0 63 -2 70 -20 70
-18 0 -20 -7 -20 -70z"/>
<path d="M3216 4227 c-45 -45 -41 -158 7 -192 22 -15 82 -20 112 -9 18 7 47
58 38 68 -13 12 -39 5 -51 -14 -15 -24 -54 -26 -76 -4 -23 22 -21 96 2 117 25
23 59 21 74 -3 11 -17 58 -29 58 -15 0 16 -31 63 -45 69 -38 14 -96 6 -119
-17z"/>
<path d="M3464 4227 c-16 -14 -24 -29 -20 -35 10 -16 31 -15 46 3 15 18 51 20
68 3 23 -23 12 -36 -39 -43 -58 -8 -89 -33 -89 -70 0 -37 33 -65 78 -65 21 0
43 5 50 12 9 9 12 9 12 0 0 -7 12 -12 26 -12 l26 0 -4 96 c-3 86 -5 98 -27
115 -33 27 -93 25 -127 -4z m106 -126 c0 -26 -24 -43 -57 -39 -18 2 -29 10
-31 22 -5 24 14 36 56 36 25 0 32 -4 32 -19z"/>
<path d="M3694 4237 c-2 -7 -3 -76 -2 -152 3 -132 4 -140 23 -140 16 0 21 8
25 47 4 39 8 46 20 38 8 -5 32 -10 52 -10 55 0 78 34 78 117 0 55 -4 67 -25
88 -29 29 -79 33 -107 8 -17 -15 -18 -15 -18 0 0 20 -38 23 -46 4z m135 -41
c7 -8 15 -30 18 -50 11 -67 -49 -113 -91 -70 -21 21 -21 92 1 116 19 21 56 24
72 4z"/>
<path d="M3981 4136 c42 -118 44 -144 9 -153 -29 -8 -26 -43 4 -43 44 0 65 31
111 160 25 69 45 131 45 138 0 8 -9 12 -22 10 -19 -2 -27 -18 -49 -88 -16 -50
-29 -79 -33 -70 -3 8 -16 47 -29 85 -21 61 -27 70 -50 73 l-27 3 41 -115z"/>
<path d="M4755 4225 c-22 -21 -25 -33 -25 -93 0 -59 3 -72 23 -90 25 -23 80
-29 107 -12 12 8 16 1 20 -38 4 -39 9 -47 25 -47 19 0 20 7 20 150 0 148 0
150 -22 153 -16 2 -23 -2 -23 -14 0 -16 -1 -16 -18 -1 -28 25 -78 21 -107 -8z
m109 -37 c21 -29 20 -87 -1 -110 -22 -25 -59 -23 -77 4 -34 48 -9 128 39 128
13 0 31 -10 39 -22z"/>
<path d="M5490 4243 c0 -5 10 -57 21 -116 20 -98 24 -108 43 -105 17 2 23 15
35 76 8 39 18 72 22 72 3 0 12 -34 19 -75 11 -66 15 -75 34 -75 20 0 24 11 44
108 27 129 26 122 3 122 -19 0 -22 -8 -37 -114 -7 -53 -17 -47 -28 19 -15 87
-17 95 -36 95 -19 0 -21 -8 -36 -95 -11 -66 -21 -72 -28 -19 -15 106 -18 114
-37 114 -11 0 -19 -3 -19 -7z"/>
<path d="M6040 4230 c0 -16 6 -20 35 -20 l35 0 0 -75 0 -75 -35 0 c-28 0 -35
-4 -35 -20 0 -19 7 -20 95 -20 88 0 95 1 95 20 0 16 -7 20 -35 20 l-34 0 -3
93 -3 92 -57 3 c-53 3 -58 1 -58 -18z"/>
<path d="M6326 4225 c-23 -21 -26 -32 -26 -90 0 -57 3 -69 25 -90 32 -33 105
-35 135 -5 25 25 26 50 1 50 -10 0 -24 -7 -31 -15 -18 -22 -67 -19 -80 4 -15
30 -12 97 6 115 22 22 61 20 76 -4 16 -26 48 -26 48 -1 0 29 -47 61 -90 61
-26 0 -45 -8 -64 -25z"/>
<path d="M7099 4221 c-25 -26 -29 -37 -29 -86 0 -49 4 -60 29 -86 23 -23 38
-29 71 -29 33 0 48 6 71 29 25 26 29 37 29 86 0 49 -4 60 -29 86 -23 23 -38
29 -71 29 -33 0 -48 -6 -71 -29z m112 -28 c8 -9 14 -35 14 -58 0 -51 -18 -75
-55 -75 -37 0 -55 24 -55 75 0 51 18 75 55 75 15 0 34 -7 41 -17z"/>
<path d="M7840 4135 c0 -108 1 -115 20 -115 18 0 20 8 22 93 3 84 5 92 23 92
18 0 20 -8 23 -92 2 -85 4 -93 22 -93 18 0 20 7 20 83 0 88 9 114 34 104 13
-5 16 -23 16 -97 0 -83 1 -90 20 -90 19 0 20 7 20 96 0 52 -5 104 -10 115 -13
23 -53 25 -71 3 -11 -14 -13 -14 -21 0 -12 21 -55 20 -67 -1 -10 -17 -10 -17
-11 0 0 10 -8 17 -20 17 -19 0 -20 -7 -20 -115z"/>
<path d="M8110 4239 c0 -7 16 -56 36 -110 39 -107 40 -129 6 -144 -12 -5 -22
-18 -22 -29 0 -16 5 -17 32 -12 18 4 38 12 45 19 12 11 103 258 103 278 0 5
-9 9 -19 9 -16 0 -25 -17 -47 -85 -16 -47 -31 -85 -34 -85 -4 0 -18 37 -32 83
-21 66 -30 83 -47 85 -12 2 -21 -2 -21 -9z"/>
<path d="M8943 4240 c-32 -13 -43 -41 -43 -110 0 -51 4 -65 25 -85 35 -36 102
-35 141 2 25 24 27 28 11 31 -10 2 -34 -4 -52 -13 -38 -17 -67 -10 -79 21 -12
31 -5 34 70 34 l77 0 -6 42 c-10 72 -73 106 -144 78z m85 -42 c7 -7 12 -20 12
-30 0 -15 -9 -18 -50 -18 -52 0 -58 7 -40 41 12 22 59 26 78 7z"/>
<path d="M9160 4100 c0 -143 1 -150 20 -150 17 0 20 7 20 52 0 49 1 50 18 35
28 -25 78 -21 107 8 22 21 25 33 25 90 0 57 -3 69 -25 90 -28 29 -70 32 -103
9 -20 -14 -22 -14 -22 0 0 9 -9 16 -20 16 -19 0 -20 -7 -20 -150z m134 88 c21
-29 20 -87 -1 -110 -22 -24 -69 -24 -83 1 -15 30 -12 92 7 113 22 25 59 23 77
-4z"/>
<path d="M9463 4240 c-32 -13 -43 -41 -43 -110 0 -51 4 -65 25 -85 35 -36 102
-35 141 2 25 24 27 28 11 31 -10 2 -34 -4 -52 -13 -38 -17 -67 -10 -79 21 -12
31 -5 34 70 34 l77 0 -6 42 c-10 72 -73 106 -144 78z m85 -42 c7 -7 12 -20 12
-30 0 -15 -9 -18 -50 -18 -52 0 -58 7 -40 41 12 22 59 26 78 7z"/>
<path d="M9680 4135 c0 -108 1 -115 20 -115 18 0 20 7 20 79 0 86 12 111 54
111 38 0 46 -19 46 -107 0 -76 2 -83 20 -83 19 0 20 7 20 95 0 82 -3 98 -20
115 -24 24 -67 26 -97 5 -19 -13 -22 -13 -27 0 -3 8 -12 15 -21 15 -13 0 -15
-18 -15 -115z"/>
<path d="M10233 4240 c-32 -13 -43 -41 -43 -110 0 -51 4 -65 25 -85 35 -36
102 -35 141 2 25 24 27 28 11 31 -10 2 -34 -4 -52 -13 -38 -17 -67 -10 -79 21
-12 31 -5 34 70 34 l77 0 -6 42 c-10 72 -73 106 -144 78z m85 -42 c7 -7 12
-20 12 -30 0 -15 -9 -18 -50 -18 -52 0 -58 7 -40 41 12 22 59 26 78 7z"/>
<path d="M10450 4135 c0 -108 1 -115 20 -115 18 0 20 7 20 79 0 86 12 111 54
111 38 0 46 -19 46 -107 0 -76 2 -83 20 -83 19 0 20 7 20 95 0 82 -3 98 -20
115 -24 24 -67 26 -97 5 -19 -13 -22 -13 -27 0 -3 8 -12 15 -21 15 -13 0 -15
-18 -15 -115z"/>
<path d="M10736 4225 c-23 -21 -26 -32 -26 -90 0 -57 3 -69 25 -90 32 -33 105
-35 135 -5 25 25 26 50 1 50 -10 0 -24 -7 -31 -15 -18 -22 -67 -19 -80 4 -15
30 -12 97 6 115 22 22 61 20 76 -4 16 -26 48 -26 48 -1 0 29 -47 61 -90 61
-26 0 -45 -8 -64 -25z"/>
<path d="M10970 4230 c0 -16 6 -20 35 -20 l35 0 0 -75 0 -75 -35 0 c-28 0 -35
-4 -35 -20 0 -19 7 -20 95 -20 88 0 95 1 95 20 0 16 -7 20 -35 20 l-34 0 -3
93 -3 92 -57 3 c-53 3 -58 1 -58 -18z"/>
<path d="M11273 4240 c-32 -13 -43 -41 -43 -110 0 -51 4 -65 25 -85 35 -36
102 -35 141 2 25 24 27 28 11 31 -10 2 -34 -4 -52 -13 -38 -17 -67 -10 -79 21
-12 31 -5 34 70 34 l77 0 -6 42 c-10 72 -73 106 -144 78z m85 -42 c7 -7 12
-20 12 -30 0 -15 -9 -18 -50 -18 -52 0 -58 7 -40 41 12 22 59 26 78 7z"/>
<path d="M11522 4234 c-15 -10 -22 -25 -22 -49 0 -38 22 -58 77 -70 44 -9 58
-28 37 -50 -17 -17 -65 -13 -72 6 -5 12 -52 12 -52 -1 0 -5 9 -19 20 -30 30
-30 109 -28 138 3 44 46 23 88 -53 110 -55 15 -69 39 -35 57 17 9 26 8 45 -4
30 -20 55 -21 55 -2 0 23 -41 46 -80 46 -20 0 -46 -7 -58 -16z"/>
<path d="M12313 4240 c-12 -5 -27 -18 -33 -29 -9 -18 -8 -21 13 -21 12 0 28 5
34 11 6 6 23 9 39 7 21 -2 30 -9 32 -25 3 -23 -9 -29 -72 -35 -18 -2 -37 -13
-49 -29 -45 -61 32 -127 104 -89 13 8 19 7 19 0 0 -6 10 -10 23 -8 21 3 22 7
22 97 0 85 -2 95 -24 112 -24 20 -71 24 -108 9z m87 -138 c0 -26 -20 -42 -52
-42 -30 0 -44 19 -34 45 3 10 19 15 46 15 32 0 40 -4 40 -18z"/>
<path d="M12530 4230 c0 -16 6 -20 35 -20 l35 0 0 -75 0 -75 -35 0 c-28 0 -35
-4 -35 -20 0 -19 7 -20 95 -20 88 0 95 1 95 20 0 16 -7 20 -35 20 l-34 0 -3
93 -3 92 -57 3 c-53 3 -58 1 -58 -18z"/>
<path d="M13093 4240 c-32 -13 -43 -41 -43 -110 0 -51 4 -65 25 -85 35 -36
102 -35 141 2 25 24 27 28 11 31 -10 2 -34 -4 -52 -13 -38 -17 -67 -10 -79 21
-12 31 -5 34 70 34 l77 0 -6 42 c-10 72 -73 106 -144 78z m85 -42 c7 -7 12
-20 12 -30 0 -15 -9 -18 -50 -18 -52 0 -58 7 -40 41 12 22 59 26 78 7z"/>
<path d="M4460 4150 c0 -19 7 -20 110 -20 103 0 110 1 110 20 0 19 -7 20 -110
20 -103 0 -110 -1 -110 -20z"/>
<path d="M13631 4066 c-16 -20 -3 -46 24 -46 13 0 26 7 29 16 7 19 -10 44 -29
44 -7 0 -18 -6 -24 -14z"/>
<path d="M5844 3565 c-10 -25 4 -45 30 -45 30 0 40 13 31 40 -8 24 -53 28 -61
5z"/>
<path d="M6364 3565 c-10 -25 4 -45 30 -45 30 0 40 13 31 40 -8 24 -53 28 -61
5z"/>
<path d="M8184 3565 c-10 -25 4 -45 30 -45 30 0 40 13 31 40 -8 24 -53 28 -61
5z"/>
<path d="M12594 3565 c-10 -25 4 -45 30 -45 30 0 40 13 31 40 -8 24 -53 28
-61 5z"/>
<path d="M8520 3499 c0 -60 -1 -61 -18 -46 -28 25 -78 21 -107 -8 -22 -21 -25
-33 -25 -93 0 -59 3 -72 23 -90 28 -26 88 -30 111 -6 15 14 16 14 16 0 0 -10
9 -16 25 -16 l26 0 -3 158 c-3 154 -3 157 -25 160 -22 3 -23 0 -23 -59z m-18
-86 c23 -21 24 -89 1 -115 -37 -41 -93 -7 -93 57 0 63 51 95 92 58z"/>
<path d="M12790 3540 c0 -16 6 -20 35 -20 l35 0 0 -120 0 -120 -35 0 c-28 0
-35 -4 -35 -20 0 -19 7 -20 95 -20 88 0 95 1 95 20 0 16 -7 20 -35 20 l-34 0
-3 138 -3 137 -57 3 c-53 3 -58 1 -58 -18z"/>
<path d="M13450 3499 c0 -60 -1 -61 -18 -46 -28 25 -78 21 -107 -8 -22 -21
-25 -33 -25 -93 0 -59 3 -72 23 -90 28 -26 88 -30 111 -6 15 14 16 14 16 0 0
-10 9 -16 25 -16 l26 0 -3 158 c-3 154 -3 157 -25 160 -22 3 -23 0 -23 -59z
m-18 -86 c23 -21 24 -89 1 -115 -37 -41 -93 -7 -93 57 0 63 51 95 92 58z"/>
<path d="M13827 3553 c-4 -3 -7 -75 -7 -160 l0 -153 25 0 c16 0 25 6 25 16 0
14 1 14 16 0 9 -9 32 -16 54 -16 57 0 80 33 80 117 0 55 -4 67 -25 88 -29 29
-79 33 -107 8 -17 -15 -18 -14 -18 45 0 53 -3 62 -18 62 -10 0 -22 -3 -25 -7z
m132 -137 c7 -8 15 -30 18 -50 11 -67 -44 -110 -89 -69 -23 21 -24 89 -1 115
19 21 56 24 72 4z"/>
<path d="M15010 3499 c0 -60 -1 -61 -18 -46 -28 25 -78 21 -107 -8 -22 -21
-25 -33 -25 -93 0 -59 3 -72 23 -90 28 -26 88 -30 111 -6 15 14 16 14 16 0 0
-10 9 -16 25 -16 l26 0 -3 158 c-3 154 -3 157 -25 160 -22 3 -23 0 -23 -59z
m-18 -86 c23 -21 24 -89 1 -115 -37 -41 -93 -7 -93 57 0 63 51 95 92 58z"/>
<path d="M3950 3395 l0 -155 25 0 c25 0 25 1 25 79 0 86 12 111 54 111 38 0
46 -19 46 -108 0 -81 1 -83 23 -80 19 3 22 10 25 53 5 72 -7 134 -29 156 -23
23 -66 25 -97 3 -22 -15 -22 -15 -22 40 0 53 -1 56 -25 56 l-25 0 0 -155z"/>
<path d="M6110 3530 c-11 -11 -20 -29 -20 -39 0 -14 -8 -21 -27 -23 -17 -2
-29 -10 -31 -20 -3 -14 3 -18 27 -18 l31 0 0 -95 c0 -95 0 -95 25 -95 25 0 25
0 25 95 l0 95 45 0 c38 0 45 3 45 20 0 17 -7 20 -45 20 -33 0 -45 4 -45 15 0
20 37 38 66 32 18 -3 24 0 24 14 0 28 -92 27 -120 -1z"/>
<path d="M10450 3535 c0 -10 11 -15 35 -15 l35 0 0 -120 0 -120 -35 0 c-28 0
-35 -4 -35 -20 0 -19 7 -20 95 -20 88 0 95 1 95 20 0 16 -7 20 -35 20 l-35 0
0 135 0 135 -60 0 c-47 0 -60 -3 -60 -15z"/>
<path d="M10960 3395 l0 -155 25 0 c25 0 25 1 25 79 0 86 12 111 54 111 38 0
46 -19 46 -108 0 -81 1 -83 23 -80 19 3 22 10 25 53 5 72 -7 134 -29 156 -23
23 -66 25 -97 3 -22 -15 -22 -15 -22 40 0 53 -1 56 -25 56 l-25 0 0 -155z"/>
<path d="M12080 3530 c-11 -11 -20 -29 -20 -39 0 -14 -8 -21 -27 -23 -17 -2
-29 -10 -31 -20 -3 -14 3 -18 27 -18 l31 0 0 -95 c0 -95 0 -95 25 -95 25 0 25
0 25 95 l0 95 45 0 c38 0 45 3 45 20 0 17 -7 20 -45 20 -33 0 -45 4 -45 15 0
20 37 38 66 32 18 -3 24 0 24 14 0 28 -92 27 -120 -1z"/>
<path d="M3680 3520 c0 -17 7 -20 45 -20 l45 0 0 -130 c0 -123 1 -130 20 -130
19 0 20 7 20 130 l0 130 45 0 c38 0 45 3 45 20 0 19 -7 20 -110 20 -103 0
-110 -1 -110 -20z"/>
<path d="M10010 3470 c0 -63 2 -70 20 -70 18 0 20 7 20 70 0 63 -2 70 -20 70
-18 0 -20 -7 -20 -70z"/>
<path d="M10212 3407 c-23 -73 -44 -141 -48 -150 -5 -13 0 -17 18 -17 20 0 27
7 37 40 12 39 12 40 60 40 47 0 48 -1 60 -40 9 -32 16 -40 36 -40 24 0 24 1
11 43 -7 23 -28 90 -47 150 -31 100 -35 107 -59 107 -25 0 -28 -7 -68 -133z
m87 12 c7 -27 11 -52 8 -55 -3 -3 -18 -4 -34 -2 l-30 3 15 53 c8 28 18 52 21
52 4 0 13 -23 20 -51z"/>
<path d="M11560 3470 c0 -63 2 -70 20 -70 18 0 20 7 20 70 0 63 -2 70 -20 70
-18 0 -20 -7 -20 -70z"/>
<path d="M5570 3500 c0 -27 -3 -30 -30 -30 -23 0 -30 -4 -30 -20 0 -16 7 -20
30 -20 l30 0 0 -79 c0 -71 2 -82 22 -95 12 -9 42 -16 65 -16 36 0 43 3 43 20
0 16 -7 20 -33 20 -47 0 -57 15 -57 87 l0 63 45 0 c38 0 45 3 45 20 0 17 -7
20 -45 20 -43 0 -45 1 -45 30 0 23 -4 30 -20 30 -16 0 -20 -7 -20 -30z"/>
<path d="M7130 3500 c0 -27 -3 -30 -30 -30 -23 0 -30 -4 -30 -20 0 -16 7 -20
30 -20 l30 0 0 -79 c0 -71 2 -82 22 -95 12 -9 42 -16 65 -16 36 0 43 3 43 20
0 16 -7 20 -33 20 -47 0 -57 15 -57 87 l0 63 45 0 c38 0 45 3 45 20 0 17 -7
20 -45 20 -43 0 -45 1 -45 30 0 23 -4 30 -20 30 -16 0 -20 -7 -20 -30z"/>
<path d="M19590 3500 c0 -27 -3 -30 -30 -30 -23 0 -30 -4 -30 -20 0 -16 7 -20
30 -20 l30 0 0 -79 c0 -71 2 -82 22 -95 12 -9 42 -16 65 -16 36 0 43 3 43 20
0 16 -7 20 -33 20 -47 0 -57 15 -57 87 l0 63 45 0 c38 0 45 3 45 20 0 17 -7
20 -45 20 -43 0 -45 1 -45 30 0 23 -4 30 -20 30 -16 0 -20 -7 -20 -30z"/>
<path d="M20370 3500 c0 -27 -3 -30 -30 -30 -23 0 -30 -4 -30 -20 0 -16 7 -20
30 -20 l30 0 0 -79 c0 -71 2 -82 22 -95 12 -9 42 -16 65 -16 36 0 43 3 43 20
0 16 -7 20 -33 20 -47 0 -57 15 -57 87 l0 63 45 0 c38 0 45 3 45 20 0 17 -7
20 -45 20 -43 0 -45 1 -45 30 0 23 -4 30 -20 30 -16 0 -20 -7 -20 -30z"/>
<path d="M3190 3469 c0 -16 3 -29 8 -29 4 0 34 -16 67 -34 l59 -34 -67 -33
c-60 -30 -67 -36 -67 -62 l0 -29 38 22 c20 12 61 36 90 52 78 45 73 62 -38
125 l-90 52 0 -30z"/>
<path d="M4245 3445 c-22 -21 -25 -33 -25 -90 0 -57 3 -69 25 -90 36 -37 106
-35 143 3 26 26 26 27 6 30 -11 2 -33 -4 -48 -12 -31 -16 -54 -12 -73 12 -28
34 -16 42 63 42 l77 0 -6 42 c-8 56 -43 88 -98 88 -29 0 -47 -7 -64 -25z m103
-27 c7 -7 12 -20 12 -30 0 -15 -9 -18 -50 -18 -52 0 -58 7 -40 41 12 22 59 26
78 7z"/>
<path d="M4766 3447 c-45 -45 -41 -158 7 -192 22 -15 82 -20 112 -9 18 7 47
58 38 68 -13 12 -39 5 -51 -14 -15 -24 -54 -26 -76 -4 -23 22 -21 96 2 117 25
23 59 21 74 -3 11 -17 58 -29 58 -15 0 16 -31 63 -45 69 -38 14 -96 6 -119
-17z"/>
<path d="M5033 3455 c-49 -34 -53 -146 -7 -192 35 -35 105 -33 142 5 l27 27
-24 3 c-13 2 -28 -1 -34 -7 -19 -19 -75 -13 -87 8 -19 37 -12 41 66 41 l77 0
-6 42 c-7 55 -43 88 -95 88 -21 0 -47 -7 -59 -15z m95 -37 c26 -26 13 -38 -38
-38 -54 0 -55 1 -40 31 12 22 59 26 78 7z"/>
<path d="M5250 3450 c0 -15 7 -20 25 -20 24 0 25 -2 25 -75 0 -68 -2 -75 -20
-75 -13 0 -20 -7 -20 -20 0 -18 7 -20 75 -20 68 0 75 2 75 20 0 16 -7 20 -36
20 l-37 0 7 53 c9 64 31 89 80 89 31 0 36 3 36 24 0 21 -4 24 -39 24 -31 0
-44 -6 -60 -26 l-21 -27 0 27 c0 24 -3 26 -45 26 -38 0 -45 -3 -45 -20z"/>
<path d="M5780 3450 c0 -16 7 -20 35 -20 l35 0 0 -75 0 -75 -35 0 c-28 0 -35
-4 -35 -20 0 -19 7 -20 95 -20 88 0 95 1 95 20 0 16 -7 20 -35 20 l-35 0 0 95
0 95 -60 0 c-53 0 -60 -2 -60 -20z"/>
<path d="M6300 3450 c0 -16 7 -20 35 -20 l35 0 0 -75 0 -75 -35 0 c-28 0 -35
-4 -35 -20 0 -19 7 -20 95 -20 88 0 95 1 95 20 0 16 -7 20 -35 20 l-35 0 0 95
0 95 -60 0 c-53 0 -60 -2 -60 -20z"/>
<path d="M6586 3447 c-45 -45 -41 -158 7 -192 22 -15 82 -20 112 -9 18 7 47
58 38 68 -13 12 -39 5 -51 -14 -15 -24 -54 -26 -76 -4 -23 22 -21 96 2 117 25
23 59 21 74 -3 11 -17 58 -29 58 -15 0 16 -31 63 -45 69 -38 14 -96 6 -119
-17z"/>
<path d="M6844 3447 c-16 -14 -24 -29 -20 -35 10 -16 31 -15 46 3 15 18 51 20
68 3 23 -23 12 -36 -39 -43 -58 -8 -89 -33 -89 -70 0 -37 33 -65 78 -65 21 0
43 5 50 12 9 9 12 9 12 0 0 -7 12 -12 26 -12 l26 0 -4 96 c-3 86 -5 98 -27
115 -33 27 -93 25 -127 -4z m106 -126 c0 -26 -24 -43 -57 -39 -18 2 -29 10
-31 22 -5 24 14 36 56 36 25 0 32 -4 32 -19z"/>
<path d="M7373 3455 c-49 -34 -53 -146 -7 -192 35 -35 105 -33 142 5 l27 27
-24 3 c-13 2 -28 -1 -34 -7 -19 -19 -75 -13 -87 8 -19 37 -12 41 66 41 l77 0
-6 42 c-7 55 -43 88 -95 88 -21 0 -47 -7 -59 -15z m95 -37 c26 -26 13 -38 -38
-38 -54 0 -55 1 -40 31 12 22 59 26 78 7z"/>
<path d="M7897 3459 c-10 -6 -22 -22 -28 -36 -14 -38 11 -69 69 -86 51 -15 66
-39 34 -56 -13 -7 -26 -6 -46 5 -36 18 -66 18 -66 0 0 -45 122 -64 160 -26 23
23 26 72 6 89 -7 6 -37 18 -65 27 -39 11 -51 19 -49 32 4 21 44 28 73 12 12
-7 31 -10 41 -8 17 3 16 6 -8 31 -29 29 -86 37 -121 16z"/>
<path d="M8120 3450 c0 -16 7 -20 35 -20 l35 0 0 -75 0 -75 -35 0 c-28 0 -35
-4 -35 -20 0 -19 7 -20 95 -20 88 0 95 1 95 20 0 16 -7 20 -35 20 l-35 0 0 95
0 95 -60 0 c-53 0 -60 -2 -60 -20z"/>
<path d="M8673 3455 c-49 -34 -53 -146 -7 -192 35 -35 105 -33 142 5 l27 27
-24 3 c-13 2 -28 -1 -34 -7 -19 -19 -75 -13 -87 8 -19 37 -12 41 66 41 l77 0
-6 42 c-7 55 -43 88 -95 88 -21 0 -47 -7 -59 -15z m95 -37 c26 -26 13 -38 -38
-38 -54 0 -55 1 -40 31 12 22 59 26 78 7z"/>
<path d="M8926 3447 c-45 -45 -41 -158 7 -192 22 -15 82 -20 112 -9 18 7 47
58 38 68 -13 12 -39 5 -51 -14 -15 -24 -54 -26 -76 -4 -23 22 -21 96 2 117 25
23 59 21 74 -3 11 -17 58 -29 58 -15 0 16 -31 63 -45 69 -38 14 -96 6 -119
-17z"/>
<path d="M9184 3447 c-16 -14 -24 -29 -20 -35 10 -16 31 -15 46 3 15 18 51 20
68 3 23 -23 12 -36 -39 -43 -58 -8 -89 -33 -89 -70 0 -37 33 -65 78 -65 21 0
43 5 50 12 9 9 12 9 12 0 0 -7 12 -12 26 -12 l26 0 -4 96 c-3 86 -5 98 -27
115 -33 27 -93 25 -127 -4z m106 -126 c0 -26 -24 -43 -57 -39 -18 2 -29 10
-31 22 -5 24 14 36 56 36 25 0 32 -4 32 -19z"/>
<path d="M9410 3450 c0 -15 7 -20 25 -20 24 0 25 -2 25 -75 0 -68 -2 -75 -20
-75 -13 0 -20 -7 -20 -20 0 -18 7 -20 75 -20 68 0 75 2 75 20 0 16 -7 20 -36
20 l-37 0 7 53 c9 64 31 89 80 89 31 0 36 3 36 24 0 21 -4 24 -39 24 -31 0
-44 -6 -60 -26 l-21 -27 0 27 c0 24 -3 26 -45 26 -38 0 -45 -3 -45 -20z"/>
<path d="M10710 3320 c0 -143 1 -150 20 -150 17 0 20 7 20 52 0 49 1 50 18 35
28 -25 78 -21 107 8 22 21 25 33 25 90 0 57 -3 69 -25 90 -29 29 -79 33 -107
8 -17 -15 -18 -15 -18 0 0 10 -8 17 -20 17 -19 0 -20 -7 -20 -150z m134 88
c34 -48 9 -128 -39 -128 -35 0 -55 26 -55 72 0 70 60 105 94 56z"/>
<path d="M11273 3460 c-12 -5 -27 -18 -33 -29 -9 -18 -8 -21 13 -21 12 0 28 5
34 11 6 6 23 9 39 7 21 -2 30 -9 32 -25 3 -18 -3 -23 -35 -28 -74 -12 -81 -15
-93 -44 -12 -30 -2 -66 24 -83 16 -11 64 -10 87 2 13 7 19 7 19 0 0 -5 12 -10
26 -10 l26 0 -4 96 c-4 86 -7 99 -27 115 -24 20 -71 24 -108 9z m87 -138 c0
-26 -20 -42 -52 -42 -30 0 -44 19 -34 45 3 10 19 15 46 15 32 0 40 -4 40 -18z"/>
<path d="M12294 3447 c-16 -14 -24 -29 -20 -35 10 -16 31 -15 46 3 15 18 51
20 68 3 23 -23 12 -36 -39 -43 -58 -8 -89 -33 -89 -70 0 -37 33 -65 78 -65 21
0 43 5 50 12 9 9 12 9 12 0 0 -7 12 -12 26 -12 l26 0 -4 96 c-3 86 -5 98 -27
115 -33 27 -93 25 -127 -4z m106 -126 c0 -26 -24 -43 -57 -39 -18 2 -29 10
-31 22 -5 24 14 36 56 36 25 0 32 -4 32 -19z"/>
<path d="M12530 3450 c0 -16 7 -20 35 -20 l35 0 0 -75 0 -75 -35 0 c-28 0 -35
-4 -35 -20 0 -19 7 -20 95 -20 88 0 95 1 95 20 0 16 -7 20 -35 20 l-35 0 0 95
0 95 -60 0 c-53 0 -60 -2 -60 -20z"/>
<path d="M13083 3455 c-49 -34 -53 -146 -7 -192 35 -35 105 -33 142 5 l27 27
-24 3 c-13 2 -28 -1 -34 -7 -19 -19 -75 -13 -87 8 -19 37 -12 41 66 41 l77 0
-6 42 c-7 55 -43 88 -95 88 -21 0 -47 -7 -59 -15z m95 -37 c26 -26 13 -38 -38
-38 -54 0 -55 1 -40 31 12 22 59 26 78 7z"/>
<path d="M14114 3447 c-16 -14 -24 -29 -20 -35 10 -16 31 -15 46 3 15 18 51
20 68 3 23 -23 12 -36 -39 -43 -58 -8 -89 -33 -89 -70 0 -37 33 -65 78 -65 21
0 43 5 50 12 9 9 12 9 12 0 0 -7 12 -12 26 -12 l26 0 -4 96 c-3 86 -5 98 -27
115 -33 27 -93 25 -127 -4z m106 -126 c0 -26 -24 -43 -57 -39 -18 2 -29 10
-31 22 -5 24 14 36 56 36 25 0 32 -4 32 -19z"/>
<path d="M14387 3459 c-10 -6 -22 -22 -28 -36 -14 -38 11 -69 69 -86 51 -15
66 -39 34 -56 -13 -7 -26 -6 -46 5 -36 18 -66 18 -66 0 0 -45 122 -64 160 -26
23 23 26 72 6 89 -7 6 -37 18 -65 27 -39 11 -51 19 -49 32 4 21 44 28 73 12
12 -7 31 -10 41 -8 17 3 16 6 -8 31 -29 29 -86 37 -121 16z"/>
<path d="M14643 3455 c-49 -34 -53 -146 -7 -192 35 -35 105 -33 142 5 l27 27
-24 3 c-13 2 -28 -1 -34 -7 -19 -19 -75 -13 -87 8 -19 37 -12 41 66 41 l77 0
-6 42 c-7 55 -43 88 -95 88 -21 0 -47 -7 -59 -15z m95 -37 c26 -26 13 -38 -38
-38 -54 0 -55 1 -40 31 12 22 59 26 78 7z"/>
<path d="M15409 3441 c-24 -25 -29 -37 -29 -81 0 -86 28 -119 100 -119 72 0
100 33 100 119 0 44 -5 56 -29 81 -23 23 -38 29 -71 29 -33 0 -48 -6 -71 -29z
m111 -27 c8 -8 13 -35 13 -59 0 -52 -16 -75 -53 -75 -37 0 -53 23 -53 75 0 52
16 75 53 75 15 0 33 -7 40 -16z"/>
<path d="M15640 3355 l0 -115 25 0 c25 0 25 1 25 78 0 85 14 112 58 112 31 0
42 -29 42 -114 0 -75 0 -76 26 -76 l26 0 -4 94 c-3 75 -8 99 -22 115 -23 26
-82 28 -108 4 -17 -15 -18 -15 -18 0 0 11 -8 17 -25 17 l-25 0 0 -115z"/>
<path d="M16191 3356 c42 -118 44 -144 9 -153 -29 -8 -26 -43 4 -43 44 0 65
31 111 160 25 69 45 131 45 138 0 8 -9 12 -22 10 -19 -2 -27 -18 -49 -88 -16
-50 -29 -79 -33 -70 -3 8 -16 47 -29 85 -21 61 -27 70 -50 73 l-27 3 41 -115z"/>
<path d="M16449 3441 c-24 -25 -29 -37 -29 -81 0 -86 28 -119 100 -119 72 0
100 33 100 119 0 44 -5 56 -29 81 -23 23 -38 29 -71 29 -33 0 -48 -6 -71 -29z
m111 -27 c8 -8 13 -35 13 -59 0 -52 -16 -75 -53 -75 -37 0 -53 23 -53 75 0 52
16 75 53 75 15 0 33 -7 40 -16z"/>
<path d="M16682 3376 c3 -75 8 -99 22 -115 21 -23 74 -28 107 -11 13 7 19 7
19 0 0 -5 11 -10 25 -10 l26 0 -3 113 c-3 108 -4 112 -25 115 -22 3 -23 1 -23
-76 0 -84 -14 -112 -56 -112 -36 0 -44 20 -44 107 0 83 0 83 -26 83 l-26 0 4
-94z"/>
<path d="M16940 3450 c0 -15 7 -20 25 -20 24 0 25 -2 25 -75 0 -68 -2 -75 -20
-75 -13 0 -20 -7 -20 -20 0 -18 7 -20 75 -20 68 0 75 2 75 20 0 16 -7 20 -36
20 l-37 0 7 53 c9 64 31 89 80 89 31 0 36 3 36 24 0 21 -4 24 -39 24 -31 0
-44 -6 -60 -26 l-21 -27 0 27 c0 24 -3 26 -45 26 -38 0 -45 -3 -45 -20z"/>
<path d="M17452 3376 c3 -75 8 -99 22 -115 21 -23 74 -28 107 -11 13 7 19 7
19 0 0 -5 11 -10 25 -10 l26 0 -3 113 c-3 108 -4 112 -25 115 -22 3 -23 1 -23
-76 0 -84 -14 -112 -56 -112 -36 0 -44 20 -44 107 0 83 0 83 -26 83 l-26 0 4
-94z"/>
<path d="M17757 3459 c-10 -6 -22 -22 -28 -36 -14 -38 11 -69 69 -86 51 -15
66 -39 34 -56 -13 -7 -26 -6 -46 5 -36 18 -66 18 -66 0 0 -45 122 -64 160 -26
23 23 26 72 6 89 -7 6 -37 18 -65 27 -39 11 -51 19 -49 32 4 21 44 28 73 12
12 -7 31 -10 41 -8 17 3 16 6 -8 31 -29 29 -86 37 -121 16z"/>
<path d="M18013 3455 c-49 -34 -53 -146 -7 -192 35 -35 105 -33 142 5 l27 27
-24 3 c-13 2 -28 -1 -34 -7 -19 -19 -75 -13 -87 8 -19 37 -12 41 66 41 l77 0
-6 42 c-7 55 -43 88 -95 88 -21 0 -47 -7 -59 -15z m95 -37 c26 -26 13 -38 -38
-38 -54 0 -55 1 -40 31 12 22 59 26 78 7z"/>
<path d="M18230 3450 c0 -15 7 -20 25 -20 24 0 25 -2 25 -75 0 -68 -2 -75 -20
-75 -13 0 -20 -7 -20 -20 0 -18 7 -20 75 -20 68 0 75 2 75 20 0 16 -7 20 -36
20 l-37 0 7 53 c9 64 31 89 80 89 31 0 36 3 36 24 0 21 -4 24 -39 24 -31 0
-44 -6 -60 -26 l-21 -27 0 27 c0 24 -3 26 -45 26 -38 0 -45 -3 -45 -20z"/>
<path d="M18786 3447 c-45 -45 -41 -158 7 -192 22 -15 82 -20 112 -9 18 7 47
58 38 68 -13 12 -39 5 -51 -14 -15 -24 -54 -26 -76 -4 -23 22 -21 96 2 117 25
23 59 21 74 -3 11 -17 58 -29 58 -15 0 16 -31 63 -45 69 -38 14 -96 6 -119
-17z"/>
<path d="M19039 3441 c-24 -25 -29 -37 -29 -81 0 -86 28 -119 100 -119 72 0
100 33 100 119 0 44 -5 56 -29 81 -23 23 -38 29 -71 29 -33 0 -48 -6 -71 -29z
m111 -27 c8 -8 13 -35 13 -59 0 -52 -16 -75 -53 -75 -37 0 -53 23 -53 75 0 52
16 75 53 75 15 0 33 -7 40 -16z"/>
<path d="M19270 3355 l0 -115 25 0 c25 0 25 1 25 78 0 85 14 112 58 112 31 0
42 -29 42 -114 0 -75 0 -76 26 -76 l26 0 -4 94 c-3 75 -8 99 -22 115 -23 26
-82 28 -108 4 -17 -15 -18 -15 -18 0 0 11 -8 17 -25 17 l-25 0 0 -115z"/>
<path d="M19833 3455 c-49 -34 -53 -146 -7 -192 35 -35 105 -33 142 5 l27 27
-24 3 c-13 2 -28 -1 -34 -7 -19 -19 -75 -13 -87 8 -19 37 -12 41 66 41 l77 0
-6 42 c-7 55 -43 88 -95 88 -21 0 -47 -7 -59 -15z m95 -37 c26 -26 13 -38 -38
-38 -54 0 -55 1 -40 31 12 22 59 26 78 7z"/>
<path d="M20050 3464 c0 -3 14 -26 32 -51 17 -26 31 -52 31 -58 0 -6 -14 -32
-31 -58 -18 -25 -32 -48 -32 -51 0 -3 11 -6 24 -6 18 0 31 11 49 41 l25 41 27
-41 c20 -29 35 -41 51 -41 13 0 24 3 24 6 0 3 -14 26 -32 51 -17 26 -31 52
-31 58 0 6 14 32 31 58 18 25 32 48 32 51 0 3 -11 6 -24 6 -18 0 -31 -11 -49
-41 l-25 -41 -27 41 c-20 29 -35 41 -51 41 -13 0 -24 -3 -24 -6z"/>
<path d="M20640 3305 c-26 -32 13 -81 48 -59 34 22 22 74 -18 74 -10 0 -23 -7
-30 -15z"/>
<path d="M10768 193 c12 -2 30 -2 40 0 9 3 -1 5 -23 4 -22 0 -30 -2 -17 -4z"/>
</g>
</svg>
